<?xml version="1.0" standalone="no"?><!DOCTYPE svg PUBLIC "-//W3C//DTD SVG 1.1//EN" "http://www.w3.org/Graphics/SVG/1.1/DTD/svg11.dtd"><svg class="icon" width="200px" height="200.00px" viewBox="0 0 1024 1024" version="1.1" xmlns="http://www.w3.org/2000/svg"><path d="M666.545694 16.889976l-2.029929 243.639718h243.657788z" fill="#36AF47" /><path d="M607.954824 317.114729V0.391529H165.357929C127.259106 0.391529 96.406588 30.900706 96.406588 68.632094v886.777977c0 37.641035 30.894682 68.1984 68.993506 68.1984h690.176c38.147012 0 69.077835-30.557365 69.077835-68.258636V317.114729H607.954824z" fill="#36AF47" /><path d="M258.993694 619.640471h31.719906v130.921411c0 22.046118-4.608 38.490353-13.824 49.332706-10.300235 11.384471-26.654118 17.076706-49.061647 17.076706-19.516235 0-34.334118-5.421176-44.453647-16.263529-10.300235-10.842353-15.456376-25.750588-15.456377-44.724706v-6.234353h31.713883v5.963294c0 22.226824 9.577412 33.340235 28.732235 33.340235 10.661647 0 18.432-3.162353 23.311059-9.487059 4.879059-6.324706 7.318588-16.353882 7.318588-30.087529V619.640471z m69.668141 0h80.233412c46.802824 0 70.198212 19.787294 70.198212 59.361882 0 39.936-23.576094 59.904-70.746353 59.904h-47.977412V813.176471h-31.707859v-193.536z m31.707859 27.105882v65.054118h46.08c13.914353 0 24.214588-2.529882 30.900706-7.589647 6.505412-5.240471 9.758118-13.643294 9.758118-25.208471 0-11.384471-3.337035-19.606588-10.023153-24.666353-6.324706-5.059765-16.534588-7.589647-30.635671-7.589647h-46.08z m145.829647-27.105882h139.595294v27.105882h-107.881411v53.669647h101.376v27.105882h-101.376v58.548706h112.489411v27.105883h-144.203294v-193.536z m258.048-3.794824c24.937412 0 44.544 5.511529 58.825788 16.534588 13.914353 10.842353 22.588235 27.015529 26.021647 48.51953h-31.984941c-2.710588-12.288-8.493176-21.594353-17.347764-27.919059-8.854588-6.144-20.690824-9.216-35.508706-9.216-18.251294 0-32.617412 6.144-43.104377 18.432-11.565176 12.830118-17.347765 31.171765-17.347764 55.024941 0 22.768941 5.150118 40.297412 15.456376 52.585412 11.203765 13.010824 28.551529 19.516235 52.043294 19.516235 9.216 0 17.889882-1.084235 26.021647-3.252706 7.228235-1.987765 14.179388-4.969412 20.87153-8.944941V737.28h-51.230118v-27.105882h82.944v81.859764c-9.938824 7.951059-21.684706 14.095059-35.237647 18.432-14.095059 4.336941-29.726118 6.505412-46.893177 6.505412-30.72 0-54.663529-9.758118-71.830588-29.274353-15.902118-18.070588-23.853176-41.562353-23.853176-70.475294 0-29.093647 7.951059-52.946824 23.853176-71.559529 16.624941-19.877647 39.393882-29.816471 68.306824-29.816471z" fill="#FFFFFF" /></svg>