<?xml version="1.0" standalone="no"?>
<!DOCTYPE svg PUBLIC "-//W3C//DTD SVG 1.1//EN" "http://www.w3.org/Graphics/SVG/1.1/DTD/svg11.dtd" >
<!--
2013-9-30: Created.
-->
<svg>
<metadata>
Created by iconfont
</metadata>
<defs>

<font id="iconfont" horiz-adv-x="1024" >
  <font-face
    font-family="iconfont"
    font-weight="500"
    font-stretch="normal"
    units-per-em="1024"
    ascent="896"
    descent="-128"
  />
    <missing-glyph />
    
    <glyph glyph-name="shenpi" unicode="&#59056;" d="M225.180064 551.750721l480.926284 0 0-53.289694L225.180064 498.461027 225.180064 551.750721zM892.099413 37.377674c3.104711 3.559059 5.975085 8.014534 8.610098 13.196557 2.635013 5.152347 1.825578 9.855462-2.294252 13.983479l-7.452739 7.800663c-3.900843 4.131087-6.42841 6.414083-7.458879 7.001461-5.287423 3.547803-10.215666 4.123924-14.911618 1.486864-4.711302-2.517333-9.413394-6.191003-14.108323-10.894118-12.057617-11.930727-23.864524-23.517623-35.677571-34.984792-11.694343-11.355629-22.819728-22.257933-33.262568-32.585139-3.666506-3.664459-7.800663-5.850242-12.155854-6.644327-4.474918-0.681522-8.035 0.681522-10.670014 4.362354l-7.346315 7.67889c-3.432169 3.681856-6.997368 7.573489-10.663874 11.694343l-10.550287 12.05557c-3.445472 3.900843-5.846148 6.658653-7.467065 8.133238-3.090385 2.6432-6.64842 4.25593-10.543124 5.053086-3.89982 0.810459-8.033977-0.568958-12.153808-4.249791l-3.901867-3.547803c-2.180666-1.715061-4.241604-3.78214-6.315846-6.199189-2.059915-2.294252-4.119831-4.354168-6.300496-6.186909l-3.89982-3.438309c-7.801686-8.382924-6.771217-17.899672 3.211135-28.785603 3.089361-3.681856 7.224542-8.16496 12.495592-13.662161 5.164626-5.381567 10.671037-11.232832 16.395412-17.434068 5.847172-6.187933 11.585873-12.272511 17.327644-18.243503 5.725398-5.952572 10.671037-10.772344 14.911618-14.337543 4.128017-4.233418 9.868765-6.074346 17.206894-5.846148 7.338129 0.224104 12.851703 2.408863 16.403598 6.544043 7.329942 6.766101 15.722076 14.907525 25.128307 24.543999 9.390881 9.520841 19.265786 19.273972 29.354562 29.135574 10.201339 9.745968 20.182668 19.500123 29.823236 29.134551C875.47478 21.661737 884.305913 30.155179 892.099413 37.377674L892.099413 37.377674zM785.535375 193.485081c23.52274 0 45.659923-4.466732 66.538439-13.533224 20.985964-9.06547 39.229466-21.441335 54.951543-36.933167 15.585977-15.490809 28.089755-33.730219 37.155225-54.371328 9.187243-20.757766 13.760398-42.777269 13.760398-66.068741 0-23.859407-4.574179-46.11734-13.760398-66.766636-9.064446-20.74651-21.568225-38.872333-37.155225-54.481845-15.722076-15.479553-33.965579-27.627221-54.951543-36.46961-20.878516-8.846482-43.015699-13.196557-66.538439-13.196557-24.081465 0-46.567595 4.350075-67.439972 13.196557-20.871353 8.842389-39.229466 20.990057-54.821583 36.46961-15.722076 15.609513-28.097942 33.735335-37.284161 54.481845-9.187243 20.649296-13.768585 42.907229-13.768585 66.766636 0 23.292496 4.582365 45.310975 13.768585 66.068741 9.18622 20.641109 21.561062 38.880519 37.284161 54.371328 15.592117 15.491833 33.95023 27.866674 54.821583 36.933167C738.96778 189.01835 761.452887 193.485081 785.535375 193.485081zM225.180064 444.729266l480.926284 0 0-53.281507L225.180064 391.447758 225.180064 444.729266 225.180064 444.729266zM171.455465 605.47532l56.322773 0 456.669834 0 75.384921 0 0-267.76137L171.455465 337.71395 171.455465 605.47532zM64.438103-40.53686c0-27.28646 24.695448-49.392944 53.724599-49.392944l492.391407 0c-20.938891 32.425504-33.109072 71.045079-33.109072 112.50433 0 114.65532 92.977601 207.635991 207.628828 207.635991 29.043477 0 56.679907-5.975085 81.776492-16.739243L866.850355 337.71395l-53.732785 0L813.11757 658.765013 813.11757 712.06801 118.162702 712.06801l0-53.302997 0-321.05004L64.438103 337.714973 64.438103-40.53686 64.438103-40.53686z"  horiz-adv-x="1024" />

    
    <glyph glyph-name="liulan" unicode="&#58893;" d="M391.506455 351.707838c0-16.134061 3.187439-32.266923 9.316683-47.173017 6.128445-14.91109 15.201294-28.584819 26.53441-39.998281 11.328919-11.410464 24.904315-20.547269 39.707878-26.720883 14.799566-6.177612 30.817506-9.382639 46.840642-9.382639 16.019938 0 32.037678 3.205027 46.837244 9.382639 14.803763 6.173614 28.379958 15.31042 39.713075 26.720883 11.329119 11.413662 20.400768 25.087391 26.530213 39.998281 6.133641 14.905894 9.32108 31.039955 9.32108 47.173017 0 16.139258-3.187439 32.27212-9.32108 47.177014-6.129444 14.91109-15.201294 28.584819-26.530213 39.995283-11.333116 11.414661-24.909311 20.551666-39.713075 26.72508-14.799566 6.176612-30.818505 9.382639-46.837244 9.382639-16.022936 0-32.040876-3.206026-46.840642-9.382639-14.803763-6.173614-28.378759-15.31042-39.707878-26.72508-11.333116-11.409464-20.406165-25.083194-26.53441-39.995283C394.693694 383.980157 391.506455 367.847096 391.506455 351.707838L391.506455 351.707838zM954.352045 381.494842c0 0-0.507856 11.74044-108.413696 113.323966-154.240625 134.341117-291.72521 153.629239-393.98268 140.883881-102.258269-12.745359-179.208697-68.201359-185.362124-71.649222-48.565273-27.21255-185.707091-162.582569-193.911728-179.461125-19.495582-40.300276 7.181931-80.599554 7.181931-80.599554s221.272977-239.593156 422.366635-239.593156 296.513964 87.000214 336.868603 118.685331c40.35464 31.691313 89.94042 89.21771 115.252659 123.315392C972.138386 344.637232 954.352045 381.494842 954.352045 381.494842L954.352045 381.494842zM513.906068 144.727171c-113.498848 0-205.508465 92.66957-205.508465 206.980867 0 114.315294 92.009418 206.985064 205.508265 206.985064 113.496849 0 205.504468-92.66957 205.504468-206.985064C719.410336 237.396741 627.402917 144.727171 513.906068 144.727171L513.906068 144.727171z"  horiz-adv-x="1024" />

    
    <glyph glyph-name="nonglinmuyu" unicode="&#59007;" d="M318.22111 101.341339c-8.794293 0-17.587564 0.451278-26.37981 1.127683-71.702042 5.863545-130.101103 33.596166-164.373675 77.789691-29.086455 37.880749-39.458687 86.809111-29.537733 141.827169 16.685008 93.348038 44.86993 176.999227 78.917374 235.398288 53.889351 92.220355 112.963795 107.777679 153.098887 104.395652 50.055023-4.057409 93.347015-41.713031 128.747269-111.837134 4.960988-9.920954 1.127683-22.321378-9.018398-27.281343-9.920954-4.960988-22.322401-1.127683-27.28339 9.018398-19.61678 39.007409-52.311413 86.131683-95.827509 89.51371-97.18032 7.891737-162.343435-160.089092-188.724269-306.423925-7.891737-43.968397-0.676405-80.945567 21.644973-109.808942 27.057239-35.173081 75.084069-57.269331 135.512347-62.23032 73.731258-6.087649 138.443096 16.45988 169.334663 58.398038 6.537903 9.018398 19.389606 11.047614 28.409027 4.28356 9.019421-6.537903 11.04966-19.389606 4.284583-28.41005-20.744463-28.184923-52.085262-49.604768-90.868567-62.456471C379.32477 105.850026 349.336782 101.341339 318.22111 101.341339L318.22111 101.341339zM309.426817-38.00329c-11.273764 0-20.292162 9.018398-20.292162 20.292162L289.134655 368.982982c0 11.274788 9.018398 20.293185 20.292162 20.293185 11.274788 0 20.293185-9.018398 20.293185-20.293185l0-386.467959C329.720002-28.759765 320.700581-38.00329 309.426817-38.00329L309.426817-38.00329zM299.054585 251.508453c-3.155876 0-6.538927 0.677429-9.469676 2.482541l-70.575382 37.653575c-9.91993 5.187139-13.753235 17.588587-8.340969 27.507494 5.185093 9.920954 17.58654 13.755282 27.507494 8.343015l70.575382-37.654598c9.91993-5.186116 13.753235-17.587564 8.341992-27.506471C313.485249 255.342782 306.27094 251.508453 299.054585 251.508453L299.054585 251.508453zM658.916583-65.060529c-11.273764 0-20.293185 9.020444-20.293185 20.292162L638.623397 594.912617c0 11.273764 9.019421 20.293185 20.293185 20.293185s20.293185-9.018398 20.293185-20.293185l0-639.680984C679.209768-56.040085 670.190347-65.060529 658.916583-65.060529L658.916583-65.060529zM644.712069 237.078813c-5.862521 0-11.725042 2.481518-15.559371 7.216355l-92.219331 110.709451c-7.215332 8.567119-6.087649 21.418822 2.706645 28.635177 8.568143 7.215332 21.420869 6.087649 28.634154-2.707668l92.221378-110.706381c7.214309-8.569166 6.086625-21.421892-2.706645-28.636201C653.955594 238.659821 649.22178 237.078813 644.712069 237.078813L644.712069 237.078813zM669.288814 114.419192c-11.048637 0-22.321378 0.449231-33.595142 1.352811-91.995227 7.440459-166.629042 42.840714-210.145138 99.210559-36.978193 48.025807-49.830919 110.258173-37.429471 180.382277 21.645996 121.079636 58.173934 229.534743 102.367459 305.295218 54.339606 93.121887 121.531937 139.118478 193.910385 133.258003 138.89335-11.274788 204.282616-230.213195 225.928612-324.011488 2.028193-8.568143-1.804089-17.58654-9.471722-22.096251-35.849486-21.420869-55.466266-46.448892-55.466266-70.800509 0-32.017204 31.115672-79.367629 77.564563-117.699656 5.862521-4.960988 8.568143-12.852726 6.764054-20.292162-13.979386-59.075467-53.212946-105.298208-112.964818-133.932362C774.812149 125.242701 723.403293 114.419192 669.288814 114.419192L669.288814 114.419192zM671.993412 794.008095c-126.041648 0-209.918987-216.457914-243.965407-405.633461-10.597359-59.075467-0.676405-109.131513 29.537733-148.365072 36.526915-47.349401 100.788497-77.112262 181.28381-83.649142 103.041818-8.343015 217.359446 25.928532 248.025886 120.628358-50.958602 45.320185-82.074274 98.308003-82.074274 140.247184 0 36.07666 21.643949 69.671803 62.456471 97.632621C825.769728 683.524794 756.774331 787.244041 681.012833 793.556816 678.082084 793.782967 675.151335 794.008095 671.993412 794.008095L671.993412 794.008095zM671.092903 389.953595c-4.734838 0-9.469676 1.577938-13.529131 5.186116-8.341992 7.439436-9.244548 20.293185-1.803066 28.634154l102.139262 116.120694c7.441483 8.343015 20.293185 9.245572 28.636201 1.805112 8.340969-7.441483 9.244548-20.293185 1.804089-28.636201l-102.141308-116.121717C682.365644 392.433066 676.72825 389.953595 671.092903 389.953595L671.092903 389.953595z"  horiz-adv-x="1024" />

    
    <glyph glyph-name="ren" unicode="&#58885;" d="M938.666667 106.66666699999996c8.533333 17.066667 17.066667 29.866667 25.6 46.933333 4.266667 4.266667 4.266667 8.533333 4.266666 12.8 4.266667 12.8 12.8 25.6 17.066667 38.4 4.266667 4.266667 4.266667 8.533333 4.266667 17.066667 4.266667 12.8 8.533333 25.6 12.8 34.133333 0 4.266667 4.266667 12.8 4.266666 17.066667 4.266667 12.8 4.266667 25.6 8.533334 38.4 0 4.266667 4.266667 12.8 4.266666 17.066666 4.266667 17.066667 4.266667 38.4 4.266667 55.466667 0 281.6-230.4 512-512 512s-512-230.4-512-512c0-17.066667 0-38.4 4.266667-55.466667 0-4.266667 0-12.8 4.266666-17.066666 0-12.8 4.266667-25.6 4.266667-38.4 0-4.266667 4.266667-12.8 4.266667-17.066667 4.266667-12.8 8.533333-25.6 12.8-34.133333 0-4.266667 4.266667-8.533333 4.266666-17.066667 4.266667-12.8 8.533333-25.6 17.066667-38.4 0-4.266667 4.266667-8.533333 4.266667-12.8 8.533333-17.066667 17.066667-29.866667 25.6-46.933333 89.6-140.8 247.466667-234.666667 426.666666-234.666667s337.066667 93.866667 430.933334 234.666667c-4.266667 0-4.266667 0 0 0zM507.733333 652.8c102.4 0 187.733333-85.333333 187.733334-187.733333 0-102.4-85.333333-187.733333-187.733334-187.733334s-187.733333 85.333333-187.733333 187.733334c0 102.4 85.333333 187.733333 187.733333 187.733333z m-311.466666-588.8c55.466667 123.733333 174.933333 204.8 311.466666 204.8s256-81.066667 311.466667-204.8c-81.066667-76.8-192-128-311.466667-128-119.466667 4.266667-230.4 51.2-311.466666 128z"  horiz-adv-x="1024" />

    
    <glyph glyph-name="chinamap-chart" unicode="&#59522;" d="M840.576 93.696c-2.944 0.384-0.448 4.608-4.352 6.080v1.664l-0.832 0.896c-1.408 0.96-3.2 0.512-5.056 1.408 0 1.408-1.088 2.304-1.536 4.224-1.792 0-1.408 2.112-2.24 3.52l-3.648 3.712c0.448 3.072 2.688 6.848 2.24 10.368-0.448 1.408-0.448 3.264-1.792 4.224 0.936 7.694 3.707 14.6 7.86 20.458-1.972-1.194-2.42 1.814-0.82 4.118l2.752 1.472c0.896 0.96 0.896 3.584 1.28 5.824 0.96 2.368 4.864 2.816 5.696 6.4 1.856 0.448 3.648 0.896 5.056 2.816 1.536 0 3.84 1.408 5.632 1.408 1.344-1.408 1.792-3.328 4.8-3.776 3.072-11.712 0-26.048-0.512-39.168-3.392-5.824-1.152-14.080-6.080-19.712-1.408-3.072-0.512-6.784-0.96-10.304-0.448-2.368-0.896-4.224-3.392-5.248-1.344 0.512-2.304-0.896-4.096-0.384zM626.176 0c-0.832 0.96-3.072 1.472-5.312 2.368l-0.96 1.408c-1.6 0.448-3.84 0-5.632 1.408l-1.408 1.472c-0.448 1.6 0 3.456-1.344 5.312l-1.152 0.96c0 2.88-1.344 5.376-0.896 8.704 0.448 1.408 2.944 2.304 2.496 4.928 4.032 3.328 8.32 7.232 13.824 10.56 3.392 0 5.248 0.896 8.384 2.368 2.048 0 2.048-1.472 4.288-1.92l2.752 0.448 1.344 2.432-0.896 1.152c-1.344 0.448-3.584 0.896-5.44 1.856-1.088 1.408-2.944 2.368-3.84 4.224 0 3.072-2.304 4.928-2.688 8.64l-1.408 1.472c-0.448 1.664-0.448 3.968-0.896 5.76l-0.64 1.024c-2.304 0.448-4.096 0.448-6.848 0.96-1.088 1.152-2.944 1.6-3.84 3.52-2.85 0.894-6.127 1.409-9.525 1.409-0.094 0-0.188-0-0.282-0.001-3.122 0-2.226-2.816-5.106-3.776-2.816-0.704-5.12-0.704-8.448-0.704-3.584 1.216-5.888 2.56-9.792 4.48-1.728 0-4.736-0.448-7.040 0.96-1.792 2.816-4.928 4.928-7.424 8.192-0.896 0.512-0.896 2.368-1.792 4.48-0.448 3.264 1.28 7.040 0.448 11.008l-1.408 0.896c-1.28 0-3.84-0.448-5.632-0.448-11.622 4.185-21.572 10.479-29.851 18.49 13.979-13.562 10.395-14.714 9.435-17.594-1.28-1.792-4.736-2.752-6.144-5.76-2.304-1.92-6.528-0.96-9.728-0.96-1.408-0.512-1.856-1.92-4.352-2.368-6.528 2.368-13.824 0-20.864 2.816-1.536 0-3.328-0.512-4.288-1.472l-1.344-2.752c-1.856 0-4.8 0-7.040 0.448-1.792-0.448-4.096 0-5.696-1.92-0.896-6.72 2.944-14.912-1.344-21.312-2.24 0.512-2.688-1.792-5.44-2.304-1.6 0-2.496 0.512-4.288 0.896-2.304 1.408-1.408 4.224-4.8 4.928-0.448 2.368-1.28 4.224-2.24 7.040l-0.96 0.96c-2.752 0-1.792-3.264-4.736-4.224-1.792 0-4.544-0.512-6.848 0.96-2.313 3.021-5.341 5.383-8.836 6.853 4.1-2.437 4.1 0.379 2.756 1.275-0.896 0.512-2.24 1.024-2.688 3.328-1.209 0.981-2.762 1.582-4.454 1.602-0.858 1.022-2.138 1.47-3.482 2.814-0.704 1.408-2.048 1.92-2.56 4.48 0 2.816 0.512 5.12 0.512 8.64 2.432 1.024 0.448 3.328 2.048 5.632-1.152 1.472-3.008 1.92-5.248 3.136-0.96 2.304-3.2 3.2-4.352 6.528 0 3.072-0.448 5.44-0.448 8.64l-1.28 3.072c-4.16 2.368-10.24-0.512-15.488 0.96l-1.856 1.408c-0.729 3.697-1.146 7.948-1.146 12.297 0 2.273 0.114 4.52 0.336 6.734 0.361 2.281 3.561 1.897 4.457 4.649v2.752c2.048 2.368 3.84 6.784 7.936 8.192 1.6 1.92 3.456 4.48 6.144 5.888 1.344 0.896 1.344 3.264 1.344 5.888 1.803 2.172 3.026 4.885 3.396 7.863-0.836 0.777-0.004 3.145 0.444 6.409 1.408 4.928 0 6.784 0 9.6l-1.792 2.56-2.944 0.896c-10.179 21.166-17.3 45.76-20.018 71.664 12.082-55.664 11.122-56.112 9.394-55.664-0.96-1.408-3.84-4.48-4.8-6.784-2.752-2.368-7.488-0.896-11.136-1.408-5.248 1.92-8.32 6.336-12.672 9.152h-5.504l-3.392-2.368c-1.92 0-2.752-1.6-5.44-2.048h-1.6l-2.752-1.024c-1.792-1.344-4.032-3.2-7.040-4.672-2.24-3.52-7.488-3.008-11.968-4.864l-0.896-1.408c-1.6-0.512-2.048-1.92-4.352-2.368h-2.688c-1.408-0.512-1.856-2.176-4.352-2.56-2.254-0.531-4.842-0.835-7.501-0.835-3.3 0-6.49 0.469-9.508 1.343l-2.959 3.46c-0.896 2.368 0 4.224-0.448 7.296-3.546 4.196-8.237 7.322-13.59 8.903 4.415 0.216 2.251 2.199-0.4 3.174l-0.026 2.195-2.752 1.664-1.408 2.752c-2.432 1.472-6.528 1.92-9.92 2.816l-2.752 2.624h-8.32c-1.92-2.112-4.864-3.52-6.208-5.76 0-2.432-1.408-4.096-2.304-6.912-0.448-0.896-2.24-0.896-4.288-1.92-1.344 0-3.648 1.024-5.44 1.472-3.392 3.712 0.448 11.008-3.392 15.488-2.24-0.512-4.096-2.304-7.040-1.856-1.792 0.448-2.24 3.264-4.48 4.16h-7.040l-4.352 2.368c-4.096 0.96-9.28 3.584-13.824 4.48-1.856 0-2.56 1.472-4.288 2.368-2.752 0-6.592 0-9.792 1.408-0.896 1.664-1.792 3.072-2.688 5.888-2.56 0.512-4.352 1.92-7.040 2.816-0.96 1.216-1.344 1.6-2.24 3.52 0 1.408 0 2.304-0.64 4.224-1.856 0.896-4.096 1.344-6.4 2.56l-1.536 2.752-2.752 1.536c-1.28 1.28-0.896 4.8-1.28 7.232l-2.368 2.304-2.944 1.92c-1.792 1.152-4.928 1.152-7.040 3.008-8.475 16.178-21.218 29.128-36.746 37.623 14.154-10.679 13.13-10.679 11.146-11.127-1.856-1.408-2.688-3.712-5.44-4.48-0.896 1.216-3.392 1.216-5.248 2.56-5.823 11.269-13.804 20.66-23.466 27.938 14.186-13.602 13.674-10.082 11.882-8.162-9.132 9.47-16.148 21.045-20.245 33.922l8.917-23.362c-1.28 1.6-2.24 4.416-4.928 5.376-2.048 8.704 0 16.896-1.152 26.048 1.152 1.408 0 4.032 1.152 5.824 1.792 1.024 2.688 2.368 5.44 3.328h1.28c1.6-1.408 2.112-3.328 4.8-3.84l1.408 1.984c0 8.192-1.856 14.976-2.752 21.312 1.344 2.368 2.752 4.224 4.096 7.488-3.436 6.401-5.454 14.005-5.454 22.081 0 0.405 0.005 0.809 0.015 1.211-0.001 3.46-3.841-0.060-5.121 3.012h-2.816c-4.352 2.304-7.488 7.552-11.392 11.968-2.24 0.448-2.688 1.92-5.44 2.816l-1.088 0.96c-2.24 6.784 0 14.528-2.24 21.76-2.304 1.024-2.752 4.48-5.056 6.4-2.88 1.408-4.288 3.264-7.488 5.568-0.214 0.884-0.336 1.9-0.336 2.944 0 1.044 0.123 2.060 0.354 3.033 1.838 1.831 4.59 2.279 7.982 3.943l0.896 0.896v5.76c0.896 2.56 2.304 3.968 3.2 7.296 0 1.408-0.448 3.968-0.448 5.824-0.512 1.408-0.512 3.328-1.856 4.288-3.456 1.6-6.080 0-9.792 2.112-0.832 0.896-1.536 2.816-3.392 3.712l-0.832 3.008 0.896 2.752c1.408 1.472 2.944 2.368 4.352 4.736-0.52 1.565-0.82 3.368-0.82 5.24 0 2.333 0.466 4.558 1.31 6.586 1.814-0.114 2.262 1.294 4.054 2.254l0.448 1.408c2.56 1.408 5.248 2.56 8 5.824 3.84 1.472 7.040 0.512 11.328 0.96l2.688 1.472c3.84 0 7.040-1.92 11.136-1.472 1.984 0 3.84-1.856 4.736-3.712 2.304-0.896 4.288 0 7.040-0.448 2.752 1.408 3.648 3.2 7.040 4.16l1.344 2.88c0.448 1.152 2.304 1.152 4.096 2.112 2.944 0 7.040-0.512 9.536 2.368 8.384 2.752 16.32 0 25.216-0.96 3.584 1.408 7.936 3.712 12.416 3.264l2.56 1.408c1.792 4.032 5.376 8.64 4.48 14.528l2.752 2.432c1.6 0 1.6 2.112 3.392 3.456h1.344l0.896 0.832c0.448 10.112 0.448 21.12 0.896 32 2.496 0.896 0.448 3.2 2.048 5.568 2.304 0 2.304 3.072 4.928 3.584 6.592-0.96 15.040 2.752 20.672-3.072h11.136l1.28 2.112c0.512 3.2 0 6.080 1.408 10.048l2.56 1.92 0.832 2.752c1.011 1.921 2.618 3.414 4.572 4.254-0.476 1.186 0.42 4.002 2.020 6.562 2.304 0.512 1.344 3.328 3.2 5.12 2.24 0.512 2.688 2.624 5.248 3.584 3.584 0 5.888-3.52 10.624-4.48 1.792-0.448 2.688-3.2 5.632-3.712h1.344l4.992-1.408c0.083-0.001 0.181-0.002 0.279-0.002 2.955 0 5.745 0.71 8.207 1.97 1.498 0.337 1.050 4.113 2.842 5.265-0.448 3.712-0.896 9.152 1.792 12.928 0.512 0.96 3.84 0.448 3.84 2.752 1.408 0.512 3.648 0 5.44 0.512 2.304 0.64 3.904 1.152 5.312 3.008l0.448 1.472c1.28 1.344 1.28 2.816 3.136 4.224 6.592 1.6 14.528 4.928 21.12 2.048 2.24-4.928-0.512-12.16 1.792-18.24 1.792-1.216 3.392-2.56 4.8-4.992 1.728-0.448 3.136-1.792 4.032-4.416 1.344-0.96 2.944-1.92 5.76-2.816 1.28-0.512 2.24 0.96 3.968 0.512 2.112-1.024 2.56-3.84 5.248-4.224 0.448-1.024 0.448-3.072 1.856-4.032 0.448-3.712 0-8.64 1.344-12.8l1.6-1.024c3.136-4.48 0.832-10.816 3.584-16-1.28-3.904-1.792-8.64-5.632-12.16-0.197-1.352-0.309-2.914-0.309-4.501 0-2.487 0.276-4.909 0.799-7.238 3.15-1.941 7.085-3.232 11.321-3.236l2.206-1.92c5.76-1.408 12.288-1.92 16.832-5.824h2.944c4.096-0.96 6.4-5.184 11.136-7.040 0-1.664 0.896-3.968 1.28-5.888 2.816-0.448 2.816-4.48 5.76-5.824h1.344c1.28-0.512 3.2-0.512 4.032-1.92 1.6-2.304 1.152-6.784 1.6-10.112l2.752-3.968c-0.448-1.856 1.792-2.816 1.408-5.632 0.832-0.96 1.28-2.56 2.88-3.968v-2.816c0-1.408 1.856-1.408 2.304-4.032 1.344-0.448 2.688-1.92 4.992-2.752 2.496 0.448 2.496-1.92 5.184-2.368 6.592 0 12.736-1.408 19.52-3.072l2.496-1.92c11.072 0.512 20.864-1.792 32.192-1.792 1.856-0.512 2.304-2.368 4.992-2.816h5.632c1.92-1.664 3.904-2.56 5.76-4.032 0-1.408 0.896-2.304 1.28-4.224 3.648-1.6 7.040 0 11.136-2.56 0.896-2.816 4.288-4.224 6.144-7.232 5.632-0.96 10.624 0 16.768-0.512 1.792-0.448 2.24-2.304 5.248-2.752 7.001 2.125 12.916 6.076 17.386 11.3-2.474-4.068-1.514-3.556 0.278-3.108l1.792 2.368c2.304 0.448 4.352 0.896 7.040 1.6l2.304 2.368c7.040 2.304 14.528 2.816 21.12 4.672 3.584 0 8.32 0 12.416 0.96 7.936-0.512 12.224 0 17.92 1.152 1.408 0.96 1.792 2.88 2.752 5.12 5.061 6.035 11.501 10.748 18.845 13.678-10.461-6.83-9.565-6.83-7.709-6.318 1.536 1.344 1.536 3.968 2.944 5.76 1.55 0.462 2.751 1.643 3.232 3.147l-0.096 1.205-2.24 2.56c-1.408 2.752-4.352 5.568-5.76 9.984 0.512 3.84 0 7.36 0.512 11.52 1.408 0.512 2.944 0.512 3.392 3.072 1.408 0.896 2.752 1.92 5.44 2.816 8.384 1.408 16.384-4.032 25.216-1.408 2.048 0 2.496 1.408 4.288 2.304l0.896 1.472 2.752 1.408c2.944 2.56 5.248 4.48 8.32 8.192 2.56 0.96 4.416 0.96 7.104 2.112l1.792 1.92c2.496 0 4.8 1.28 7.040 2.752 0.448 3.584 2.496 5.888 2.496 10.112l0.448 0.896c0.965 1.41 2.46 2.396 4.191 2.674l3.745-0.114c3.648 1.92 5.44 6.144 9.792 9.216h7.040l3.2 2.304c4.288 0 8.768 1.408 14.080 0.96l1.792 1.92c0 2.048-1.408 2.56-2.368 4.48-1.792 0-1.792 1.792-3.328 3.2-2.304 0.512-3.648 3.072-5.504 5.44l-2.88 1.344-1.408 3.072c-1.792 0.96-4.992 0.448-7.040-1.152l-1.792-2.88c-2.688 0-3.648-2.304-6.144-3.712-1.408 0.512-3.136 0-4.992 1.408l-2.496 1.92h-5.44l-3.84-2.816c-2.091-1.043-4.554-1.657-7.159-1.665l-2.633 2.113-0.896 0.96c-0.448 1.408-1.792 1.792-2.24 4.16 0 4.928 1.344 10.816 2.24 16l1.408 1.344c0.448 4.48 2.24 7.296 3.392 11.712l1.408 0.96c0.448 4.736 3.584 7.808 5.376 11.968l1.216 0.96c5.376 0.64 10.624 0 16.704 0 1.408 0.64 3.2 0.64 4.16 2.112 2.24 3.328 5.632 6.080 8.832 9.6 1.792 3.776 0.896 7.296 1.792 11.52 2.048 3.008 2.944 7.68 5.184 11.712l1.408 0.96c1.344 0.96 1.344 3.328 1.344 5.632 0.512 0.512 2.56 2.56 3.392 3.52l1.408 2.816c-0.896 2.816 0.448 5.376-0.448 8.704l-0.96 0.896c-2.24 0-4.288 0.512-7.040 0.512l-3.136 4.032v2.688c1.344 1.472 2.24 3.52 3.584 5.376l3.648 0.512c1.6 0 2.56 0.896 3.84 2.304 0.448 0.96 0.448 2.816 1.856 4.032l2.688 0.448 0.64 1.408 0.96 0.96c2.374 0.893 5.118 1.41 7.983 1.41 0.119 0 0.237-0.001 0.355-0.003 2.286 0 2.734 2.368 5.422 2.816 2.112 0 3.008 1.6 5.696 2.112 2.304 0 5.696-0.512 8.32 0.896 2.752-1.408 5.312-0.448 8.448-0.896 4.245-0.995 7.875-3.198 10.613-6.223-0.373 1.743 0.779 2.703 2.059 4.111 2.304 1.216 4.096 0 7.040 0.704 0.896-2.112 4.096-1.664 5.44-3.52 0.96-0.448 0.96-3.328 2.56-4.224 2.24-2.112 3.136-4.928 6.72-7.232 0.448-1.92 0-4.48 2.048-5.888l1.408-0.96c1.344-0.896 0.896-4.48 2.688-5.888 2.618-1.558 4.438-4.222 4.82-7.331 0.876-1.373 2.22-3.229 3.564-5.085 1.408 0 2.304-0.96 4.352-1.344 0.448-1.152 0.448-3.584 2.24-4.032 0.448-3.776 1.792-7.232 2.752-11.52 0.896 0 2.048-1.856 2.496-3.456l2.24-2.368c5.696-1.92 13.184-0.96 19.52-1.472 2.432-1.792 4.8-2.752 7.040-4.928 1.792 0 4.736 0.512 7.040-0.896 1.344-1.92 3.2-4.224 6.144-5.824 0.448-1.408 0.896-2.368 2.688-3.328 0.896-1.408 1.408-2.816 2.24-5.376l0.448-2.816 1.6-0.448c1.856-0.512 3.648-2.816 5.44-4.224 4.736 0 8.384 2.304 13.632 3.712 2.24 1.92 2.24 4.928 5.632 5.888 0 1.856 2.304 2.752 1.856 5.632 1.792 2.56 4.032 3.008 7.488 3.968 2.24 3.264 6.528 5.888 9.728 8.64h2.688l2.56 1.92h1.28l2.752-2.432c0.448-1.344 0.448-2.304 0-4.416-1.582-1.403-2.687-3.313-3.060-5.474 0.308-1.31 1.204-3.23 0.308-5.982 1.041-1.8 1.655-3.959 1.655-6.261 0-1.907-0.421-3.715-1.175-5.337l-1.375-1.074c-3.392-13.888 0-29.824-1.792-44.8-0.64-1.408-1.152-4.224-2.56-5.888-1.28-0.512-1.792-1.408-2.688-3.776-5.632 0.512-11.328 0.96-16.768-1.92l-0.448-3.008c-1.408-1.856-4.8-2.304-6.144-5.12 0-1.408 1.344-4.032 1.344-5.824 0.96-3.84 4.8-6.4 4.8-11.52 3.712-4.992 2.368-12.224 4.16-19.072-1.792-1.856-3.2-4.672-5.44-7.040-1.152-4.032 0-7.68-2.496-11.712l-0.896-0.96c-1.344-0.512-2.304-0.512-4.096 0l-0.896 2.816c-1.312 0.997-2.955 1.623-4.74 1.695-1.852-2.591-2.748-6.431-5.244-10.399-3.2-3.2-7.040-6.528-10.24-11.008 0-1.92 1.408-2.368 2.304-4.224 0-2.56-1.408-3.072-2.24-5.44l-2.752-1.856c-6.592-1.6-12.736 0-19.712 1.408-1.408-0.448-3.2-0.448-4.096-1.856-0.96-1.664-1.856-3.072-3.008-5.888v-1.408l-2.24-2.56c-0.448-1.408-1.792-1.92-2.24-4.224v-1.408c0-3.072-3.84-3.968-4.352-7.296l-0.896-2.816c-4.096-2.112-2.752-4.928-4.096-6.784-3.196-1.576-5.598-4.355-6.641-7.73l0.497-0.078c-4.728-4.227-11.003-6.81-17.881-6.81-0.419 0-0.835 0.010-1.249 0.029-1.989-0.962-3.781-1.346-5.573-3.778 0-1.6-0.896-2.56-1.408-4.416-0.896-1.408-1.28-2.368-3.392-4.224 0-1.6-0.896-2.56-1.344-4.48l-2.752-2.752c-0.448-0.96-0.448-3.072-1.792-4.032h-1.536c-0.96-0.96-1.408-2.368-2.752-3.776-3.648-0.896-5.632-3.456-9.728-3.456-0.512 2.112-1.856 2.56-2.752 5.376 0.842 1.195 1.347 2.68 1.347 4.284 0 0.069-0.001 0.138-0.003 0.206l1.856 1.846c3.648 6.784-0.896 15.424 1.792 23.040l2.24 1.6c1.6 0.96 1.152 4.16 2.944 5.632-0.015 2.631-0.495 5.146-1.361 7.472-2.479 0.208-2.927-2.096-5.679-2.608-1.28 0-2.24-0.448-4.288-0.896-2.304-1.92-2.688-4.48-4.032-7.232-0.448-1.472-1.856-1.92-3.2-4.032 0-1.408-1.152-2.368-1.6-4.288-2.688-1.344-5.44-3.2-9.728-4.928-5.969-7.147-10.312-15.86-12.336-25.428 5.296 12.116 3.44 12.116 3.952 9.748-1.792-1.664-3.648-3.072-5.696-5.44-1.792 0-2.688-1.344-5.44-1.792-1.344 0-2.496 0.448-4.352 0.896-1.28 0-3.2-0.448-4.032-1.408-2.496-1.152 0-3.52-0.896-5.824 0.896-2.816 2.752-4.48 4.48-6.848 2.752-0.896 6.656 0 9.792-0.448 4.613-1.031 8.408-3.92 10.629-7.821l-0.645-5.811-2.496-1.408 1.408-2.816c1.6 0 2.432-0.96 4.288-0.96 2.688 2.368 6.080 5.12 7.936 9.152l2.688 0.512c3.84 4.16 9.792 9.088 16.832 8.64l2.944-3.712c2.24 0 4.096-1.216 7.040-2.56l1.408 0.896c2.176 0 3.584-2.368 7.040-2.368 1.28 0.512 2.24 0 4.032 0.512 1.792 0 2.304-1.408 4.288-2.368l0.96-3.008c-5.93-7.452-14.039-12.942-23.357-15.522l7.421 1.634c-1.344-1.408-4.736-0.512-7.040-1.92l-0.896-1.152c-0.896-1.856-0.448-5.12-2.24-7.040l-1.6-1.024c-2.228-3.63-3.774-7.915-4.345-12.504-2.055 3.8-6.279 1.432-8.583-4.392-1.408-1.408-3.456-1.92-3.84-4.736-1.408-0.448-1.856-2.304-3.2-4.416 0-2.816 2.688-2.368 3.584-4.736 2.048-1.856 5.76-0.896 8.384-1.408 2.048-2.56 4.8-0.896 6.144-3.968l2.688-1.408c1.6-1.408 1.152-4.928 1.6-7.232l3.2-3.776c0.448-6.784 3.648-13.12 2.752-20.416l0.448-1.408c1.984-2.368 5.632-2.368 7.936-6.4 2.951-4.209 4.975-9.275 5.665-14.757l1.375 3.301c0.896-2.304 2.944-5.376 2.944-8.64 2.366-3.416 5.732-5.993 9.67-7.326l-1.734-1.826c-1.6-3.072-5.248-4.48-7.936-7.232-1.6-0.512-2.048-1.92-4.288-2.432h-4.096l-1.6-2.56 1.088-0.96c2.752-0.896 6.4 0.512 9.792 0 3.522-4.65 8.369-8.13 13.976-9.896-4.248-3.416-2.392-8.792-2.84-15.192l-1.408-4.16c-2.24-3.584 0-8.704 0-13.184l-0.896-1.408c-1.344-0.96-3.392-1.792-5.632-2.816-1.856-2.176-2.304-5.376-5.056-7.68-0.64-4.992-3.328-8.704-5.12-13.184 0-2.816-1.92-3.712-2.304-7.296 0-1.856-1.6-2.816-2.048-5.568 0-1.472 0-4.032-0.96-5.888-0.896-0.512-2.688-0.512-3.648-1.92 0-0.896 0-3.456-1.728-3.904-1.152-3.776 0.448-7.296 0.448-11.52-1.152-2.816-2.944-4.928-3.84-8.704l-0.96-0.96-1.344-0.448-0.896-0.896c-0.896-1.664 0-2.56-0.896-4.48l-2.496-1.92c-2.304-1.408-2.304-6.272-4.544-8.192l-2.496-1.92c-2.24-0.896-4.032 0-6.784-0.448l-2.048-2.56c-0.896-1.408 0-3.712 0-5.568l-2.304-1.664c-3.2-1.92-4.032-6.144-7.936-9.152-1.344 0-2.24-0.96-4.032-1.408l-1.152-0.96c-0.448-1.92 2.432-0.96 2.944-3.328l-0.896-0.896h-4.352c-0.896-3.008-4.928-3.008-6.592-5.824 0-4.032-3.2-6.4-5.888-8.256h-1.536c-3.2-3.968-8.832-5.376-14.336-4.992l-3.84-3.2c-2.688-0.512-4.992 0.896-8.32-1.024l-1.408-1.344c-3.648-0.96-6.592-5.44-11.136-6.784l-1.536 0.896c-1.856-0.512-2.752-1.92-5.504-2.368l-1.28 0.512c-0.512 1.408 0 2.368-0.512 4.224l-2.496 0.96c-0.896-0.512-0.896-2.368-1.792-3.84l-2.304-1.792h-4.288c-2.423-0.307-4.456-1.743-5.579-3.756 0.139-1.684-1.461-1.684-1.909-4.052-3.2-2.56-8.32-1.408-12.48-2.56l-1.28-2.304c-1.251-0.874-2.801-1.4-4.474-1.409-2.63-0.511-4.038-3.327-6.982-4.927-0.739 0.082-1.597 0.129-2.465 0.129-1.941 0-3.828-0.234-5.633-0.674l-1.118-1.375c-1.472-0.512-1.92-1.92-4.16-2.304-1.6 0-2.496-0.512-4.288-1.024l-1.472-2.56 1.472-0.896c0.832-1.408 1.792-2.88 2.688-5.632 0-2.56-2.304-4.48-2.304-7.296-0.448-1.408-3.584-0.896-4.48-3.072v-1.28c5.376-2.496 10.688 0 16.768-2.048l1.792-2.304c0-1.408 0-3.968-0.896-5.824l-2.944-0.96c-1.792-1.408-3.2-3.776-5.44-6.336-0.448-3.328 1.408-8.192-0.896-11.52l-2.944-1.408-1.344-3.008c-2.625-1.987-5.889-3.26-9.439-3.478 0.991-1.706-1.761-1.258-2.593-2.666h-9.536z"  horiz-adv-x="1024" />

    
    <glyph glyph-name="qian" unicode="&#58890;" d="M654.507 471.108c-123.136 0-222.925-99.806-222.925-222.925S531.388 25.26 654.507 25.26 877.43 125.065 877.43 248.183s-99.805 222.925-222.924 222.925z m101.836-292.625c-3.328-21.59-15.325-68.778-80.35-73.489v-41.335h-45.926v41.01c-27.443 3.858-52.736 10.958-78.745 19.662l13.79 53.964c20.616-8.038 47.77-16.657 71.68-19.421 32.426-3.79 54.306 2.9 56.337 26.402 4.625 41.199-139.862 48.452-138.496 122.777-1.98 54.597 37.632 78.388 77.107 81.681v42.974h45.91v-40.994c26.077-0.341 46.728-5.94 66.832-14.745l-12.732-50.86c-20.207 7.613-40.857 14.746-65.587 14.746-16.008 0-49.63-0.05-50.807-22.1 0-38.025 63.59-39.971 84.702-48.948 15.394-6.537 26.112-12.937 37.068-23.637 19.132-18.688 23.092-42.77 19.217-67.687zM421.069 750.575c-151.62 0-274.5-60.962-274.5-136.175 0-75.196 122.88-136.175 274.5-136.175 151.586 0 274.466 60.962 274.466 136.175 0 75.213-122.88 136.175-274.466 136.175z m125.389-178.756c-4.096-13.193-18.876-42.001-98.936-44.886v-25.241H390.98v25.054c-33.775 2.355-64.938 6.707-96.973 12.032l16.982 32.955c25.378-4.915 58.794-10.171 88.252-11.861 39.918-2.304 66.867 1.775 69.358 16.128 5.7 25.173-172.202 29.594-170.53 74.99-2.44 33.35 46.353 47.89 94.925 49.887v26.231h56.525v-25.054c32.12-0.187 57.532-3.618 82.278-8.994L516.13 662c-24.883 4.642-50.295 9.011-80.76 9.011-19.711 0-61.08-0.034-62.532-13.5 0-23.227 78.285-24.422 104.278-29.883 18.96-3.994 32.153-7.902 45.636-14.456 23.586-11.417 28.45-26.129 23.706-41.352zM507.58 443.29c-27.222-4.489-56.252-7.015-86.511-7.015-130.646 0-239.736 45.312-267.486 105.95-4.454-9.728-7.014-19.831-7.014-30.225 0-75.196 122.88-136.175 274.5-136.175 7.373 0 14.592 0.273 21.811 0.546 16.981 26.334 38.946 49.118 64.7 66.919zM688.009 480.802c4.744 10.018 7.509 20.429 7.509 31.18 0 10.412-2.56 20.498-7.015 30.226-9.864-21.572-30.19-41.148-57.958-57.48 3.908 0.187 7.731 0.597 11.674 0.597 15.684 0 30.976-1.604 45.79-4.523zM421.069 346.675c-130.646 0-239.736 45.312-267.486 105.95-4.454-9.728-7.014-19.831-7.014-30.225 0-73.062 116.087-132.523 261.717-135.85 3.481 21.162 9.694 41.386 18.38 60.262-1.86-0.034-3.72-0.137-5.597-0.137zM405.47 257.417c-123.631 3.447-225.246 47.41-251.887 105.608-4.454-9.728-7.014-19.831-7.014-30.225 0-73.472 117.401-133.205 264.209-135.902-3.653 16.538-5.718 33.673-5.718 51.303 0 3.089 0.273 6.126 0.41 9.216zM153.583 273.425c-4.454-9.728-7.014-19.831-7.014-30.225 0-75.196 122.88-136.175 274.5-136.175 10.206 0 20.24 0.324 30.14 0.853-13.261 18.074-23.894 38.161-31.676 59.631-129.963 0.359-238.32 45.517-265.95 105.916zM475.068 80.623c-17.477-1.74-35.482-2.748-54-2.748-130.645 0-239.735 45.312-267.485 105.95-4.454-9.728-7.014-19.831-7.014-30.225 0-75.196 122.88-136.175 274.5-136.175 44.697 0 86.767 5.41 124.057 14.814a236.259 236.259 0 0 0-70.058 48.384z"  horiz-adv-x="1024" />

    
    <glyph glyph-name="caidan" unicode="&#58941;" d="M896 768H128c-17.7 0-32-14.3-32-32s14.3-32 32-32h768c17.7 0 32 14.3 32 32s-14.3 32-32 32zM896 416H128c-17.7 0-32-14.3-32-32s14.3-32 32-32h768c17.7 0 32 14.3 32 32s-14.3 32-32 32zM896 64H128c-17.7 0-32-14.3-32-32s14.3-32 32-32h768c17.7 0 32 14.3 32 32s-14.3 32-32 32z"  horiz-adv-x="1024" />

    
    <glyph glyph-name="jingjizhibiao" unicode="&#58886;" d="M289.088 342.72v-341.44h124.992V342.72l-60.288 57.12-64.704-57.12zM32.832 1.28h126.016v255.04l-126.016-115.168v-139.84z m513.984 248.768l-4.992-248.768h127.424l4.416 326.592-126.848-77.824z m254.4-248.768h126.24V541.504l-126.272-125.024V1.28zM736.48 800l119.808-115.104-299.328-251.904-203.2 169.152L32 342.72v-112.096l321.792 259.424 203.2-169.12 361.536 304.224 105.472-96V800h-287.488z"  horiz-adv-x="1024" />

    
    <glyph glyph-name="zhibiaoguanli2" unicode="&#59109;" d="M928 864H96c-35.2 0-64-28.8-64-64v-832c0-35.2 28.8-64 64-64h832c35.2 0 64 28.8 64 64V800c0 35.2-28.8 64-64 64z m0-896H96V800h832v-832zM275.2 262.4L156.8 160v-86.4h118.4zM512 249.6v-182.4h118.4v246.4l-92.8-86.4zM332.8 313.6v-240h118.4v227.2L384 358.4zM691.2 368v-294.4h118.4V444.8l-9.6 16zM537.6 336l262.4 227.2 67.2-73.6V694.4h-204.8L748.8 608l-211.2-192-147.2 131.2-233.6-201.6v-80l233.6 195.2z"  horiz-adv-x="1024" />

    
    <glyph glyph-name="daolujiaotong" unicode="&#58882;" d="M715.462983-64.006615h193.073759c26.140628 0 45.331588 24.55314 38.981637 49.917663l-203.903951 815.651084c-4.480243 17.885693-20.531505 30.444483-38.981638 30.444483h-91.121783c-24.165088 0-42.862163-21.1665-39.863575-45.155201l16.721535-133.666448c2.998588-23.9887-15.698488-45.1552-39.863575-45.155201h-76.975506c-24.165088 0-42.862163 21.1665-39.863575 45.155201l16.721535 133.666448c2.998588 23.9887-15.698488 45.1552-39.863575 45.155201H319.36721c-18.450133 0-34.501395-12.55879-38.981638-30.444483l-203.903951-815.651084c-6.34995-25.364523 12.84101-49.917663 38.981637-49.917663h193.073759c20.249285 0 37.358873 15.09877 39.863576 35.206946l19.19096 153.598236c2.504703 20.108175 19.61429 35.206945 39.863575 35.206945h209.054467c20.249285 0 37.358873-15.09877 39.863575-35.206945l19.19096-153.598236c2.53998-20.108175 19.649568-35.206945 39.898853-35.206946z m-323.812175 381.173391l17.956248 143.649981c2.504703 20.108175 19.61429 35.206945 39.863575 35.206945h125.058738c20.249285 0 37.358873-15.09877 39.863575-35.206945l17.956248-143.649981c2.998588-23.9887-15.698488-45.1552-39.863575-45.155201h-160.971234c-24.165088 0-42.862163 21.1665-39.863575 45.155201z m-5.6444-45.155201"  horiz-adv-x="1024" />

    
    <glyph glyph-name="nonglinmuyuye" unicode="&#58883;" d="M987.7-111.6H33.4c-16.9 0-30.1 13.1-30.1 30.1 0 16.9 13.2 30.1 30.1 30.1h298.7L345.3 50H168.7c-5.6 0-11.3 3.8-13.2 7.5-1.9 5.6-1.9 11.3 0 15l28.2 45.1-13.2-1.9h-1.9c-5.6 0-9.4 1.9-13.2 7.5-3.8 5.6-3.8 11.3 0 16.9l93.9 154-43.2-5.6h-1.9c-5.6 0-9.4 1.9-13.2 7.5-3.8 5.6-3.8 11.3 0 15l26.3 45.1-9.4-1.9c-5.6-1.9-11.3 1.9-15 5.6-3.8 5.6-3.8 11.3 0 16.9L264.3 495h-30.1c-5.6 0-11.3 3.8-13.2 7.5-1.9 5.6-1.9 11.3 1.9 15l58.2 75.1h-15c-5.6 0-9.4 1.9-13.1 7.5-1.9 3.8-3.8 9.4 0 15L388.5 872.7c1.9 5.6 7.5 7.5 13.2 7.5 5.6 0 11.3-3.8 13.1-7.5L550 617.3c1.9-1.9 1.9-5.6 1.9-7.5 0-7.5-7.5-15-15-15h-15l56.4-75.1c1.9-1.9 3.8-5.6 3.8-9.4 0-7.5-7.5-15-15-15H537l71.4-116.5c1.9-1.9 3.8-5.6 3.8-9.4 0-7.5-7.5-15-15-15h-3.8l-9.4 1.9 24.4-43.2c1.9-1.9 1.9-5.6 1.9-9.4 0-7.5-5.6-15-15-15h-3.8l-43.2 3.8 93.9-154c3.8-5.6 3.8-11.3 0-16.9-3.8-5.6-9.4-7.5-15-5.6l-13.2 1.9 28.2-43.2c1.9-1.9 3.8-5.6 3.8-9.4 0-7.5-5.6-15-15-15H452.3l15-101.4h231l7.5 58.2H585.7c-3.8 0-7.5 1.9-9.4 5.6-1.9 3.8-1.9 7.5 0 9.4l7.5 11.3H627c16.9 0 28.2 13.2 28.2 30.1 0 5.6-1.9 13.2-5.6 16.9l-13.1 18.8c5.6 1.9 9.4 5.6 13.1 11.3 5.6 9.4 7.5 22.5 0 31.9l-5.6 28.2-24.4 39.4-1.9 3.8-11.3 18.8-26.3 43.2 15-1.9h5.6c16.9 0 28.2 13.2 28.2 30.1v5.6c0 3.8-1.9 5.6-3.8 9.4 0 1.9 0 3.8 1.9 5.6l39.5 50.7h-9.4c-3.8 0-7.5 1.9-9.4 5.6-1.9 3.8-1.9 7.5 0 9.4l92 172.8c1.9 3.8 5.6 5.6 9.4 5.6 3.8 0 7.5-1.9 9.4-5.6l92-172.8c1.9-1.9 1.9-3.8 1.9-5.6 0-5.6-3.8-9.4-9.4-9.4h-9.4l37.6-50.7c1.9-1.9 1.9-3.8 1.9-7.5 0-5.6-3.8-9.4-9.4-9.4H843l48.8-78.9c1.9-1.9 1.9-3.8 1.9-5.6 0-5.6-3.8-9.4-9.4-9.4h-13.2l16.9-30.1c1.9-1.9 1.9-3.8 1.9-5.6 0-5.6-3.8-9.4-9.4-9.4l-30.1 3.8 63.9-103.3c1.9-3.8 1.9-7.5 0-11.3-1.9-3.8-5.6-5.6-9.4-3.8l-9.4 1.9 18.8-30.1c1.9-1.9 1.9-3.8 1.9-5.6 0-5.6-3.8-9.4-9.4-9.4H786.7l9.4-58.2h197.2c16.9 0 30.1-13.1 30.1-30.1 0-17.3-18.8-34.2-35.7-34.2z m-783.3 464s1.8 0 0 0c1.8 0 1.8 0 0 0z m0 0"  horiz-adv-x="1024" />

    
    <glyph glyph-name="guanji" unicode="&#61155;" d="M513 323a30 30 0 0 0-30 30V768a30 30 0 0 0 60 0v-415a30 30 0 0 0-30-30zM689.57 670.42a27.62 27.62 0 0 1 11.67-22.59 330.05 330.05 0 0 0 113.55-140.66A328 328 0 1 0 281 611.36a329.63 329.63 0 0 0 43.69 36.75 27.62 27.62 0 0 1 11.7 22.61c0 22.39-25.23 35.62-43.55 22.76C193.9 624 129.29 509 129.54 378.83000000000004c0.42-211.7 171.52-382.46 383.23-382.45S896 167.95000000000005 896 379.6c0 129.63-64.36 244.22-162.87 313.57-18.31 12.89-43.56-0.35-43.56-22.75z"  horiz-adv-x="1024" />

    
    <glyph glyph-name="jiahao" unicode="&#59166;" d="M1029.81530864 707.6345679v-647.2691358c0-53.46443061-19.02971259-99.29108543-56.95968395-137.22105679s-83.62717235-56.95968395-137.22105679-56.95968395H188.49488592c-53.46443061 0-99.29108543 19.02971259-137.22105678 56.95968395s-56.95968395 83.62717235-56.95968396 137.22105679V707.6345679c0 53.46443061 19.02971259 99.29108543 56.95968396 137.22105679s83.62717235 56.95968395 137.22105678 56.95968395h647.26913581c53.46443061 0 99.29108543-19.02971259 137.22105679-56.95968395 37.80051753-37.92997136 56.83023013-83.75662617 56.83023012-137.22105679zM857.1239032 340.76242173v86.34570272c0 11.65084445-4.2719763 21.8776968-12.81592889 30.29219555-8.54395259 8.54395259-18.77080494 12.81592889-30.29219555 12.81592889H598.34570272V686.14523259c0 11.65084445-4.2719763 21.8776968-12.81592889 30.29219556-8.54395259 8.54395259-18.77080494 12.81592889-30.29219556 12.81592888h-86.34570272c-11.65084445 0-21.8776968-4.2719763-30.29219555-12.81592888s-12.81592889-18.77080494-12.81592889-30.29219556v-215.67007606H209.98422124c-11.65084445 0-21.8776968-4.2719763-30.29219555-12.81592888-8.54395259-8.54395259-12.81592889-18.77080494-12.81592889-30.29219555v-86.34570271c0-11.65084445 4.2719763-21.8776968 12.81592889-30.29219556 8.54395259-8.54395259 18.51189728-12.81592889 30.29219555-12.81592889h215.79952987v-215.79952988c0-11.65084445 4.2719763-21.8776968 12.81592889-30.29219556 8.54395259-8.54395259 18.51189728-12.81592889 30.29219555-12.81592889h86.34570272c11.65084445 0 21.8776968 4.2719763 30.29219556 12.81592889 8.54395259 8.54395259 12.81592889 18.77080494 12.81592889 30.29219556V297.78375111h215.67007604c11.65084445 0 21.8776968 4.2719763 30.29219555 12.81592889 8.54395259 8.54395259 12.81592889 18.64135111 12.81592889 30.16274173z"  horiz-adv-x="1024" />

    
    <glyph glyph-name="jianhao" unicode="&#59171;" d="M1029.81530864 707.6345679v-647.2691358c0-53.46443061-19.02971259-99.29108543-56.95968395-137.22105679s-83.62717235-56.95968395-137.22105679-56.95968395H188.49488592c-53.46443061 0-99.29108543 19.02971259-137.22105678 56.95968395s-56.95968395 83.62717235-56.95968396 137.22105679V707.6345679c0 53.46443061 19.02971259 99.29108543 56.95968396 137.22105679s83.62717235 56.95968395 137.22105678 56.95968395h647.26913581c53.46443061 0 99.29108543-19.02971259 137.22105679-56.95968395 37.80051753-37.92997136 56.83023013-83.75662617 56.83023012-137.22105679zM857.1239032 340.76242173v86.34570272c0 11.65084445-4.2719763 21.8776968-12.81592889 30.29219555-8.54395259 8.54395259-18.77080494 12.81592889-30.29219555 12.81592889H209.98422124c-11.65084445 0-21.8776968-4.2719763-30.29219555-12.81592889-8.54395259-8.54395259-12.81592889-18.77080494-12.81592889-30.29219555v-86.34570272c0-11.65084445 4.2719763-21.8776968 12.81592889-30.29219556 8.54395259-8.54395259 18.51189728-12.81592889 30.29219555-12.81592889h604.03155752c11.65084445 0 21.8776968 4.2719763 30.29219555 12.81592889 8.54395259 8.67340642 12.81592889 18.77080494 12.81592889 30.29219556z"  horiz-adv-x="1024" />

    
    <glyph glyph-name="ffanhui-" unicode="&#59057;" d="M398.259 583.168V810.652L0.007 412.497 398.259 14.18V247.498c284.4 0 483.565-91.004 625.735-290.15-56.838 284.472-227.502 568.82-625.735 625.82"  horiz-adv-x="1024" />

    
    <glyph glyph-name="diannao-shuju-fill" unicode="&#58961;" d="M670.203125 32.43749973000001c0-8.78906277-8.78906277-17.57812473-17.57812473-17.57812473H371.37499973c-8.78906277 0-17.57812473 8.78906277-17.57812473 17.57812473s7.03124973 17.57812473 17.57812473 17.57812554h281.25000054c8.78906277 0 17.57812473-8.78906277 17.57812473-17.57812554zM900.47656277 753.140625h-773.43750027C107.70312473 753.140625 91.88281223 737.3203125 91.88281223 717.98437473v-544.92187473c0-19.33593777 15.8203125-35.15625027 35.15625027-35.15625027h773.43750027c19.33593777 0 35.15625027 15.8203125 35.15624946 35.15625027V717.98437473c0 19.33593777-15.8203125 35.15625027-35.15624946 35.15625027zM700.08593777 450.79687527L599.89062527 352.359375c-7.03124973-7.03124973-17.57812473-7.03124973-24.60937527 0L438.171875 489.46875l-86.13281223-87.89062527c-7.03124973-7.03124973-17.57812473-7.03124973-24.60937527 0s-7.03124973 17.57812473 0 24.60937527l100.1953125 100.1953125c7.03124973 7.03124973 17.57812473 7.03124973 24.60937527 0l137.109375-137.109375 86.13281223 86.13281223c7.03124973 7.03124973 17.57812473 7.03124973 24.60937527 0 5.2734375-5.2734375 5.2734375-17.57812473 0-24.60937446z"  horiz-adv-x="1026" />

    
    <glyph glyph-name="tishenghuodegan" unicode="&#59426;" d="M512.240071 881.777778c62.577778 0 113.777778-48.355556 113.777778-110.933334 0-59.733333-51.2-110.933333-113.777778-110.933333s-113.777778 48.355556-113.777778 110.933333S449.662293 881.777778 512.240071 881.777778z m0-267.377778c-150.755556 0-273.066667-139.377778-273.066667-312.888889h548.977778c-2.844444 173.511111-125.155556 312.888889-275.911111 312.888889z m275.911111-384H492.32896c-71.111111 0-153.6-2.844444-227.555556-8.533333-31.288889-2.844444-56.888889-28.444444-54.044444-59.733334 2.844444-31.288889 31.288889-51.2 62.577778-51.2 71.111111 5.688889 147.911111 8.533333 210.488889 8.533334 39.822222-17.066667 105.244444-45.511111 116.622222-73.955556 0 0-25.6-17.066667-54.044445-34.133333-125.155556-31.288889-224.711111-25.6-298.666666 14.222222-108.088889 62.577778-128 190.577778-130.844445 193.422222-2.844444 28.444444-34.133333 51.2-65.422222 48.355556-31.288889 0-54.044444-25.6-51.2-56.888889 0-8.533333 25.6-179.2 182.044445-270.222222 62.577778-36.977778 133.688889-54.044444 213.333333-54.044445 68.266667 0 139.377778 11.377778 221.866667 36.977778 82.488889 17.066667 304.355556 54.044444 392.533333 42.666667h14.222222v199.111111c-56.888889 19.911111-193.422222 68.266667-236.088889 65.422222z"  horiz-adv-x="1024" />

    
    <glyph glyph-name="shengtai" unicode="&#59779;" d="M645.9 550.1a99.7 99.7 0 1 1 199.4 0 99.7 99.7 0 1 1-199.4 0z m4.4-182.7l-62-60.9 59.2-59.9c11.8-11.9 3.2-31.9-13.7-31.9-5.2 0-10.1 2.1-13.7 5.7l-281.5 280-241-382.2h830.7l-278 249.2z"  horiz-adv-x="1024" />

    
    <glyph glyph-name="zhongxinchengquchangzhurenkouguimo" unicode="&#59810;" d="M921.66 9.886l-840.09 0.425s-90.418-4.057-18.761 63.969c18.829 10.309 40.889 19.91 65.632 28.643a112.547 112.547 0 0 0-9.717 45.791c0 58.646 44.015 106.176 98.318 106.176s98.318-47.531 98.318-106.176c0-1.248-0.133-2.463-0.173-3.693 6.338 0.821 12.735 1.625 19.201 2.368v549.18c0 36.084 26.701 64.676 62.899 64.676h376.887c36.198 0 61.463-28.593 61.463-64.676v-579.987c43.991-12.33 81.826-27.018 111.415-43.548 107.844-71.911-25.396-63.147-25.396-63.147zM544.59 615.721c0 18.039-14.231 32.338-32.337 32.338h-64.676c-18.103 0-32.337-14.299-32.337-32.338v-88.937c0-18.033 22.318-32.338 40.423-32.338h56.591c18.107 0 32.337 14.305 32.337 32.338v88.937z m0-234.46c0 18.047-14.231 32.337-32.337 32.337h-64.676c-18.103 0-32.337-14.29-32.337-32.337v-88.933c0-18.033 22.318-32.338 40.423-32.338h56.591c18.107 0 32.337 14.305 32.337 32.338v88.933z m210.204 234.46c0 18.039-14.235 32.338-32.337 32.338h-64.679c-18.103 0-32.338-14.299-32.338-32.338v-88.937c0-18.033 22.321-32.338 40.423-32.338h56.594c18.103 0 32.337 14.305 32.337 32.338v88.937z m0-234.46c0 18.047-14.235 32.337-32.337 32.337h-64.679c-18.103 0-32.338-14.29-32.338-32.337v-88.933c0-18.033 22.321-32.338 40.423-32.338h56.594c18.103 0 32.337 14.305 32.337 32.338v88.933z"  horiz-adv-x="1024" />

    
    <glyph glyph-name="zhuantitu" unicode="&#59504;" d="M674.909091 797.393455L349.090909 708.538182v-737.931637l325.818182 88.855273V797.393455zM0 896l341.341091-93.090909 341.317818 93.090909L1024 802.909091v-930.909091l-341.341091 93.090909-341.317818-93.090909L0-34.909091V896z"  horiz-adv-x="1024" />

    
    <glyph glyph-name="tixi" unicode="&#59527;" d="M556.346574 423.389978a157.536674 157.536674 0 1 0 0-78.768337H354.463326v-275.68918h201.883248a157.536674 157.536674 0 1 0 0-78.768337H275.694989V585.889057a157.536674 157.536674 0 1 0 78.768337 0V423.389978h201.883248z"  horiz-adv-x="1024" />

    
    <glyph glyph-name="shengtaibaohuxiufu" unicode="&#58915;" d="M268.8 859.428571C149.942857 859.428571 54.857143 762.514286 54.857143 645.485714c0-54.857143 20.114286-106.057143 58.514286-146.285714 36.571429-40.228571 98.742857-58.514286 153.6-62.171429h212.114285V649.142857C477.257143 766.171429 387.657143 859.428571 268.8 859.428571zM793.6 437.028571c54.857143 3.657143 117.028571 21.942857 153.6 62.171429s58.514286 91.428571 58.514286 146.285714C1005.714286 762.514286 910.628571 859.428571 791.771429 859.428571c-118.857143 0-208.457143-93.257143-208.457143-210.285714v-212.114286h210.285714zM266.971429 330.971429c-54.857143-3.657143-117.028571-21.942857-153.6-62.171429s-58.514286-91.428571-58.514286-146.285714C54.857143 3.657143 149.942857-91.428571 268.8-91.428571c118.857143 0 208.457143 93.257143 208.457143 210.285714V330.971429H266.971429zM793.6 330.971429H581.485714v-212.114286c0-118.857143 91.428571-210.285714 208.457143-210.285714C910.628571-91.428571 1005.714286 3.657143 1005.714286 122.514286c0 54.857143-20.114286 106.057143-58.514286 146.285714-36.571429 40.228571-98.742857 58.514286-153.6 62.171429z"  horiz-adv-x="1024" />

    
    <glyph glyph-name="xiugai" unicode="&#58895;" d="M846.8 641L744.5 743.2c-33.1 33.1-87.9 33.1-122.5 0L149.6 270.7c-10.1-10.1-15.8-24.5-15.8-38.9L128 82v-4.3c1.4-15.8 7.2-30.2 18.8-40.3 10.1-10.1 24.5-14.4 38.9-14.4h2.9l146.9 5.8c14.4 0 27.3 7.2 37.4 17.3l472.5 472.4c36 34.6 36 89.3 1.4 122.5z m-675-574.3l4.4 124.3 118.3-118.3-122.7-6z m181.1 34.5L204.7 249.3 597 641.6l148.2-148.2-392.3-392.2z m465.8 465.5l-31.5-31.4-148.4 148.2 31.6 31.4c6 6 13.5 9 21 9s15-3 21-9l106.3-106.3c11.9-11.9 11.9-29.9 0-41.9zM907.9 76.2H457.4c-16.6 0-30-13.4-30-30s13.4-30 30-30h450.5c16.6 0 30 13.4 30 30s-13.4 30-30 30zM497.9 126.4c0-16.6 13.4-30 30-30h380c16.6 0 30 13.4 30 30s-13.4 30-30 30h-380c-16.5 0-30-13.4-30-30z"  horiz-adv-x="1024" />

    
    <glyph glyph-name="cancel-button" unicode="&#61156;" d="M706.26317812 162.74351363999995c-7.08021209 0-13.71791065 2.65507942-19.02806951 7.9652383L298.70847537 559.23538517c-10.62031814 10.62031814-10.62031814 27.43582132 0 38.05613946s27.43582132 10.62031814 38.05613946 0l388.52663323-388.52663324a26.71673727 26.71673727 0 0 0 0-38.05613945 26.4539953 26.4539953 0 0 0-19.02806994-7.9652383zM317.73654531 162.74351363999995c-7.08021209 0-13.71791065 2.65507942-19.02806994 7.9652383a26.71673727 26.71673727 0 0 0 0 38.05613944L687.23510861 597.29152463c10.62031814 10.62031814 27.43582132 10.62031814 38.05613945 0s10.62031814-27.43582132 0-38.05613946L336.76461483 170.70875193999996A26.4539953 26.4539953 0 0 0 317.73654531 162.74351363999995z"  horiz-adv-x="1024" />

    
    <glyph glyph-name="chengguoguanli" unicode="&#58933;" d="M512 682.666667l-85.333333 85.333333H128v-170.666667h768V682.666667zM128 0h768V512H128v-512z m554.666667 341.333333c34.133333 0 59.733333-25.6 59.733333-59.733333 0-34.133333-25.6-59.733333-59.733333-59.733333s-59.733333 25.6-59.733334 59.733333c0 34.133333 25.6 59.733333 59.733334 59.733333z m0-128c72.533333 0 128-55.466667 128-128h-256c0 72.533333 55.466667 128 128 128z"  horiz-adv-x="1024" />

    
    <glyph glyph-name="baogaoguanli" unicode="&#58934;" d="M554.666667 584.533333V810.666667H170.666667v-853.333334h682.666666V512h-226.133333c-38.4 0-72.533333 34.133333-72.533333 72.533333zM597.333333 85.333333H256v85.333334h341.333333v-85.333334z m0 256H256v85.333334h341.333333v-85.333334zM704 597.333333H853.333333l-213.333333 213.333334v-149.333334c0-34.133333 29.866667-64 64-64z"  horiz-adv-x="1024" />

    
    <glyph glyph-name="fuzhubianzhi" unicode="&#58936;" d="M640 554.666667V597.333333c0 72.533333-55.466667 128-128 128H85.333333v-640h853.333334V554.666667h-298.666667zM170.666667 640h341.333333c25.6 0 42.666667-17.066667 42.666667-42.666667v-42.666666H170.666667V640z m230.4-448H311.466667v85.333333h89.6v-85.333333z m0 170.666667H311.466667v85.333333h89.6v-85.333333z m401.066666-170.666667h-315.733333v85.333333h315.733333v-85.333333z m0 170.666667h-315.733333v85.333333h315.733333v-85.333333z"  horiz-adv-x="1024" />

    
    <glyph glyph-name="fuzhubianzhigongju" unicode="&#58937;" d="M512 213.333333c-72.533333 0-128 55.466667-128 128H85.333333v-298.666666h853.333334v298.666666h-298.666667c0-72.533333-55.466667-128-128-128zM554.666667 341.333333h-85.333334c0-25.6 17.066667-42.666667 42.666667-42.666666s42.666667 17.066667 42.666667 42.666666zM725.333333 597.333333V725.333333H256v-128H85.333333v-170.666666h853.333334V597.333333h-213.333334zM341.333333 640h298.666667v-42.666667H341.333333V640z"  horiz-adv-x="1024" />

    
    <glyph glyph-name="chengguoshencha" unicode="&#58938;" d="M128 768v-213.333333h768V768H128z m426.666667-128c-12.8-12.8-34.133333-12.8-46.933334 0-12.8 12.8-12.8 34.133333 0 46.933333s34.133333 12.8 46.933334 0 12.8-34.133333 0-46.933333z m128 0c-12.8-12.8-34.133333-12.8-46.933334 0-12.8 12.8-12.8 34.133333 0 46.933333s34.133333 12.8 46.933334 0 12.8-34.133333 0-46.933333z m128 0c-12.8-12.8-34.133333-12.8-46.933334 0-12.8 12.8-12.8 34.133333 0 46.933333s34.133333 12.8 46.933334 0 12.8-34.133333 0-46.933333zM128 277.333333h768v213.333334H128v-213.333334z m640 132.266667c12.8 12.8 34.133333 12.8 46.933333 0 12.8-12.8 12.8-34.133333 0-46.933333-12.8-12.8-34.133333-12.8-46.933333 0-12.8 12.8-12.8 34.133333 0 46.933333z m-128 0c12.8 12.8 34.133333 12.8 46.933333 0 12.8-12.8 12.8-34.133333 0-46.933333-12.8-12.8-34.133333-12.8-46.933333 0-12.8 12.8-12.8 34.133333 0 46.933333z m-128 0c12.8 12.8 34.133333 12.8 46.933333 0 12.8-12.8 12.8-34.133333 0-46.933333-12.8-12.8-34.133333-12.8-46.933333 0-12.8 12.8-12.8 34.133333 0 46.933333zM128 0h768v213.333333H128v-213.333333z m640 132.266667c12.8 12.8 34.133333 12.8 46.933333 0s12.8-34.133333 0-46.933334c-12.8-12.8-34.133333-12.8-46.933333 0-12.8 12.8-12.8 34.133333 0 46.933334z m-128 0c12.8 12.8 34.133333 12.8 46.933333 0s12.8-34.133333 0-46.933334c-12.8-12.8-34.133333-12.8-46.933333 0-12.8 12.8-12.8 34.133333 0 46.933334z m-128 0c12.8 12.8 34.133333 12.8 46.933333 0s12.8-34.133333 0-46.933334c-12.8-12.8-34.133333-12.8-46.933333 0-12.8 12.8-12.8 34.133333 0 46.933334z"  horiz-adv-x="1024" />

    
    <glyph glyph-name="guihuashishi" unicode="&#58940;" d="M170.666667 810.666667v-853.333334h640V810.666667H170.666667z m128-170.666667h341.333333v-85.333333H298.666667V640z m0-170.666667h341.333333v-85.333333H298.666667v85.333333z m358.4-418.133333c-55.466667 0-106.666667 34.133333-128 81.066667H341.333333v128h187.733334c25.6 46.933333 72.533333 81.066667 128 81.066666 51.2 0 98.133333-25.6 123.733333-68.266666l-72.533333-42.666667c-12.8 17.066667-29.866667 29.866667-51.2 29.866667-34.133333 0-59.733333-25.6-59.733334-59.733334s25.6-59.733333 59.733334-59.733333c25.6 0 46.933333 12.8 55.466666 34.133333l76.8-34.133333c-21.333333-55.466667-76.8-89.6-132.266666-89.6z"  horiz-adv-x="1024" />

    
    <glyph glyph-name="fuzhushuangpingjia" unicode="&#58942;" d="M768 128v-128l-174.933333 128zM810.666667 597.333333V768H128v-469.333333h128v-170.666667h640V597.333333h-85.333333zM256 384H213.333333V682.666667h512v-85.333334H256v-213.333333z m149.333333-85.333333c-25.6 0-42.666667 17.066667-42.666666 42.666666s17.066667 42.666667 42.666666 42.666667 42.666667-17.066667 42.666667-42.666667-17.066667-42.666667-42.666667-42.666666z m170.666667 0c-25.6 0-42.666667 17.066667-42.666667 42.666666s17.066667 42.666667 42.666667 42.666667 42.666667-17.066667 42.666667-42.666667-17.066667-42.666667-42.666667-42.666666z m170.666667 0c-25.6 0-42.666667 17.066667-42.666667 42.666666s17.066667 42.666667 42.666667 42.666667 42.666667-17.066667 42.666666-42.666667-17.066667-42.666667-42.666666-42.666666z"  horiz-adv-x="1024" />

    
    <glyph glyph-name="moxingfenxi" unicode="&#58943;" d="M128 768v-597.333333h768V768H128z m686.933333-213.333333l-98.133333-230.4c4.266667-8.533333 8.533333-17.066667 8.533333-25.6 0-25.6-17.066667-42.666667-42.666666-42.666667s-42.666667 17.066667-42.666667 42.666667v8.533333L435.2 512h-17.066667l-166.4-200.533333c4.266667-4.266667 4.266667-8.533333 4.266667-12.8 0-25.6-17.066667-42.666667-42.666667-42.666667s-42.666667 17.066667-42.666666 42.666667 17.066667 42.666667 42.666666 42.666666h8.533334l166.4 200.533334C384 546.133333 384 550.4 384 554.666667c0 25.6 17.066667 42.666667 42.666667 42.666666s42.666667-17.066667 42.666666-42.666666v-8.533334l204.8-204.8h4.266667l98.133333 230.4c-4.266667 8.533333-8.533333 17.066667-8.533333 25.6 0 25.6 17.066667 42.666667 42.666667 42.666667s42.666667-17.066667 42.666666-42.666667c0-21.333333-17.066667-38.4-38.4-42.666666zM128 85.333333h768v-85.333333H128z"  horiz-adv-x="1024" />

    
    <glyph glyph-name="jiancefenxi" unicode="&#58944;" d="M512 810.666667C277.333333 810.666667 85.333333 618.666667 85.333333 384s192-426.666667 426.666667-426.666667 426.666667 192 426.666667 426.666667S746.666667 810.666667 512 810.666667z m81.066667-311.466667l-64-204.8c-4.266667-21.333333-21.333333-34.133333-42.666667-38.4-17.066667 0-38.4 12.8-42.666667 34.133333-8.533333 21.333333-4.266667 46.933333 8.533334 59.733334l128 157.866666c4.266667 4.266667 8.533333 4.266667 12.8 4.266667 0-4.266667 4.266667-8.533333 0-12.8z m162.133333-46.933333c-29.866667 106.666667-128 183.466667-243.2 183.466666-123.733333 0-226.133333-85.333333-247.466667-209.066666l-85.333333 12.8c29.866667 162.133333 170.666667 281.6 332.8 281.6 149.333333 0 281.6-102.4 324.266667-247.466667l-81.066667-21.333333z"  horiz-adv-x="1024" />

    
    <glyph glyph-name="pingguzonglan" unicode="&#58945;" d="M128 768v-768h768V768H128z m221.866667-597.333333H213.333333v85.333333h136.533334v-85.333333z m0 170.666666H213.333333v85.333334h136.533334v-85.333334z m0 170.666667H213.333333V597.333333h136.533334v-85.333333zM810.666667 170.666667h-366.933334v85.333333H810.666667v-85.333333z m0 170.666666h-366.933334v85.333334H810.666667v-85.333334z m0 170.666667h-366.933334V597.333333H810.666667v-85.333333z"  horiz-adv-x="1024" />

    
    <glyph glyph-name="shouye" unicode="&#58946;" d="M896 469.333333l-384 298.666667-384-298.666667h85.333333v-469.333333h213.333334v192c0 34.133333 29.866667 64 64 64h42.666666c34.133333 0 64-29.866667 64-64V0h213.333334V469.333333h85.333333z"  horiz-adv-x="1024" />

    
    <glyph glyph-name="shujuchanpinliulan" unicode="&#58949;" d="M507.733333 486.4c-59.733333 0-106.666667-46.933333-106.666666-106.666667s42.666667-106.666667 106.666666-106.666666c59.733333 0 106.666667 46.933333 106.666667 106.666666s-46.933333 106.666667-106.666667 106.666667z m0-166.4c-34.133333 0-64 29.866667-64 64s29.866667 64 64 64 64-29.866667 64-64c0-38.4-29.866667-64-64-64zM128 768v-768h768V768H128z m379.733333-554.666667C320 213.333333 256 379.733333 256 379.733333s85.333333 166.4 251.733333 166.4c170.666667 0 251.733333-170.666667 251.733334-170.666666S678.4 213.333333 507.733333 213.333333z"  horiz-adv-x="1024" />

    
    <glyph glyph-name="fuzhushencha" unicode="&#58950;" d="M610.133333 273.066667c-8.533333 4.266667-17.066667 4.266667-25.6 4.266666-25.6 0-46.933333-12.8-59.733333-38.4-17.066667-29.866667 0-68.266667 29.866667-85.333333 29.866667-17.066667 68.266667 0 85.333333 29.866667 17.066667 38.4 4.266667 76.8-29.866667 89.6zM170.666667 810.666667v-853.333334h682.666666V810.666667H170.666667z m85.333333-128h384v-85.333334H256V682.666667z m0-170.666667h256v-85.333333H256V512z m128-256H256v85.333333h128v-85.333333z m388.266667-294.4l-128 119.466667c-21.333333-8.533333-42.666667-12.8-64-12.8s-42.666667 4.266667-64 12.8c-72.533333 34.133333-106.666667 123.733333-72.533334 200.533333 34.133333 72.533333 123.733333 106.666667 200.533334 72.533333 72.533333-34.133333 106.666667-123.733333 72.533333-200.533333-4.266667-4.266667-4.266667-8.533333-8.533333-12.8l119.466666-115.2-55.466666-64z"  horiz-adv-x="1024" />

    
    <glyph glyph-name="jianceyujing" unicode="&#58951;" d="M512 810.666667C277.333333 810.666667 85.333333 618.666667 85.333333 384s192-426.666667 426.666667-426.666667 426.666667 192 426.666667 426.666667S746.666667 810.666667 512 810.666667z m-34.133333-682.666667l34.133333 217.6H371.2L546.133333 640l-34.133333-217.6h140.8L477.866667 128z"  horiz-adv-x="1024" />

    
    <glyph glyph-name="shujuzhunbei" unicode="&#58952;" d="M768 85.333333v341.333334h-85.333333v-341.333334h-85.333334V597.333333h-85.333333v-512h-85.333333v341.333334H341.333333v-341.333334H213.333333V768H128v-768h768v85.333333z"  horiz-adv-x="1024" />

    
    <glyph glyph-name="zhibiaoguanli1" unicode="&#58953;" d="M503.466667 93.866667l-128 388.266666-59.733334-89.6H128V0h768v349.866667h-238.933333zM128 768v-311.466667h153.6l110.933333 170.666667 128-379.733333 102.4 166.4H896V768z"  horiz-adv-x="1024" />

    
    <glyph glyph-name="zhibiaomoxingguanli" unicode="&#58954;" d="M665.6 221.866667c-34.133333 0-59.733333-25.6-59.733333-59.733334s25.6-59.733333 59.733333-59.733333c34.133333 0 59.733333 25.6 59.733333 59.733333s-25.6 59.733333-59.733333 59.733334zM170.666667 810.666667v-853.333334h682.666666V810.666667H170.666667z m85.333333-128h298.666667v-85.333334H256V682.666667z m0-170.666667h298.666667v-85.333333H256V512z m128-256H256v85.333333h128v-85.333333z m439.466667-153.6l-25.6-42.666667c-85.333333 25.6-102.4-59.733333-102.4-59.733333H640c-25.6 89.6-102.4 59.733333-102.4 59.733333l-25.6 42.666667c68.266667 68.266667 0 115.2 0 115.2l25.6 42.666667c89.6-25.6 102.4 59.733333 102.4 59.733333h51.2c17.066667-85.333333 102.4-59.733333 102.4-59.733333l25.6-42.666667c-64-59.733333 4.266667-115.2 4.266667-115.2z"  horiz-adv-x="1024" />

    
    <glyph glyph-name="moxingguanli" unicode="&#58955;" d="M896 554.666667l-384 213.333333-384-213.333333 384-213.333334zM512 277.333333L213.333333 426.666667l-85.333333-42.666667 384-213.333333 384 213.333333-85.333333 42.666667zM512 106.666667L213.333333 256l-85.333333-42.666667 384-213.333333 384 213.333333-85.333333 42.666667z"  horiz-adv-x="1024" />

    
    <glyph glyph-name="zhuanxiangpinggu" unicode="&#58956;" d="M170.666667 810.666667v-853.333334h682.666666V810.666667H170.666667z m85.333333-256h170.666667v-85.333334H256V554.666667z m0-170.666667h170.666667v-85.333333H256v85.333333z m384-256H256v85.333333h384v-85.333333z m-110.933333 217.6c-17.066667-17.066667-42.666667-21.333333-59.733334-4.266667-17.066667 17.066667-21.333333 42.666667-4.266666 59.733334l251.733333 298.666666 64-55.466666-251.733333-298.666667z"  horiz-adv-x="1024" />

    
    <glyph glyph-name="zhibiaozonglan" unicode="&#58957;" d="M128 217.6h85.333333V0H128zM298.666667 281.6h85.333333V0H298.666667zM469.333333 345.6h85.333334V0h-85.333334zM640 405.333333h85.333333V0h-85.333333zM810.666667 469.333333h85.333333v-469.333333h-85.333333zM725.333333 768l64-64c-298.666667-285.866667-657.066667-290.133333-661.333333-290.133333v-64c17.066667 0 384 4.266667 704 307.2L896 597.333333V768h-170.666667z"  horiz-adv-x="1024" />

    
    <glyph glyph-name="bofang" unicode="&#59538;" d="M512-128C229.2224-128 0 101.2224 0 384 0 666.7776 229.2224 896 512 896c282.7776 0 512-229.2224 512-512 0-282.7776-229.2224-512-512-512z m191.3856 458.120533a68.266667 68.266667 0 0 1 0 107.758934L430.557867 650.222933A34.133333 34.133333 0 0 1 375.466667 623.274667v-478.549334a34.133333 34.133333 0 0 1 55.0912-26.948266l272.827733 212.343466zM443.733333 214.545067V553.454933L661.4528 384 443.733333 214.528z"  horiz-adv-x="1024" />

    
    <glyph glyph-name="zanting" unicode="&#59539;" d="M512-128C229.2224-128 0 101.2224 0 384 0 666.7776 229.2224 896 512 896c282.7776 0 512-229.2224 512-512 0-282.7776-229.2224-512-512-512z m-124.125867 785.066667c-16.2816 0-29.474133-13.192533-29.474133-29.474134v-487.185066a29.474133 29.474133 0 1 1 58.965333 0V627.592533c0 16.2816-13.2096 29.474133-29.4912 29.474134z m265.3184 0c-16.2816 0-29.4912-13.192533-29.4912-29.474134v-487.185066a29.474133 29.474133 0 0 1 58.965334 0V627.592533c0 16.2816-13.192533 29.474133-29.474134 29.474134z"  horiz-adv-x="1024" />

    
    <glyph glyph-name="tuichu" unicode="&#59540;" d="M170.6496 896h682.7008A170.6496 170.6496 0 0 0 1024 725.3504v-682.7008A170.6496 170.6496 0 0 0 853.3504-128H170.6496A170.6496 170.6496 0 0 0 0 42.6496V725.3504A170.6496 170.6496 0 0 0 170.6496 896z m484.4544-406.9888L870.4 704.3584 832.3584 742.4 616.96 527.104V623.616H563.2V435.2h188.416V489.0112h-96.512z m-286.208-210.0224L153.6 63.6416l38.0416-38.0416 215.3472 215.296v-96.512H460.8V332.8H272.384v-53.8112h96.512z m0 210.0224H272.384V435.2H460.8V623.616H406.9888v-96.512L191.6416 742.4 153.6 704.3584 368.896 488.96z m286.208-210.0224h96.512V332.8H563.2v-188.416h53.8112v96.512L832.3584 25.6l38.0416 38.0416-215.296 215.3472z"  horiz-adv-x="1024" />

    
    <glyph glyph-name="fangda" unicode="&#59541;" d="M170.6496 896h682.7008A170.6496 170.6496 0 0 0 1024 725.3504v-682.7008A170.6496 170.6496 0 0 0 853.3504-128H170.6496A170.6496 170.6496 0 0 0 0 42.6496V725.3504A170.6496 170.6496 0 0 0 170.6496 896z m607.8464-207.4112L563.2 473.2416l38.0416-38.0416 215.3472 215.296V553.984H870.4V742.4h-188.416v-53.8112h96.512zM245.504 79.36L460.8 294.7584 422.7584 332.8 207.36 117.504V214.016H153.6V25.6h188.416v53.8112H245.504z m0 609.1776H342.016V742.4H153.6v-188.416h53.8112V650.496L422.7584 435.2 460.8 473.2416 245.504 688.64z m532.992-609.1776H681.984V25.6H870.4v188.416h-53.8112v-96.512L601.2416 332.8l-38.0416-38.0416 215.296-215.3472z"  horiz-adv-x="1024" />

    
    <glyph glyph-name="gonggongfuwu" unicode="&#59542;" d="M384 512V652.8A140.8 140.8 0 1 1 243.2 512H384zM243.2 896A243.2 243.2 0 0 0 486.4 652.8V409.6H243.2a243.2 243.2 0 0 0 0 486.4zM384 256H243.2a140.8 140.8 0 1 1 140.8-140.8V256z m-140.8 102.4H486.4v-243.2a243.2 243.2 0 1 0-243.2 243.2z m396.8 153.6h140.8a140.8 140.8 0 1 1-140.8 140.8V512zM780.8 896a243.2 243.2 0 1 0 0-486.4H537.6V652.8A243.2 243.2 0 0 0 780.8 896zM640 256v-140.8a140.8 140.8 0 1 1 140.8 140.8H640z m-102.4 102.4h243.2a243.2 243.2 0 1 0-243.2-243.2V358.4z"  horiz-adv-x="1024" />

    
    <glyph glyph-name="ziranziyuanfenxipingjia" unicode="&#58958;" d="M512 725.333333m-85.333333 0a85.333333 85.333333 0 1 1 170.666666 0 85.333333 85.333333 0 1 1-170.666666 0ZM635.733333 661.333333C627.2 601.6 576 554.666667 512 554.666667S396.8 601.6 388.266667 661.333333H170.666667V-42.666667h682.666666V661.333333h-217.6z m132.266667-251.733333l-221.866667-221.866667c-17.066667-17.066667-46.933333-21.333333-68.266666-4.266666l-174.933334 140.8c-17.066667 12.8-21.333333 42.666667-8.533333 59.733333s42.666667 21.333333 59.733333 8.533333l149.333334-119.466666 200.533333 200.533333c17.066667 17.066667 42.666667 17.066667 59.733333 0 21.333333-21.333333 21.333333-46.933333 4.266667-64z"  horiz-adv-x="1024" />

    
    <glyph glyph-name="fenlei" unicode="&#59548;" d="M0 738.461538h1024v-78.76923H0V738.461538z m0-315.076923h708.923077v-78.76923H0v78.76923z m0-315.076923h393.846154v-78.76923H0v78.76923z"  horiz-adv-x="1024" />

    
    <glyph glyph-name="zhibiao" unicode="&#59550;" d="M613.198966 321.929846l262.833231 265.452308 55.965538-55.414154-263.719384-266.358154a157.538462 157.538462 0 1 0-55.099077 56.32zM103.384812 82.038154L29.144812 55.808A511.212308 511.212308 0 0 0 0.000197 226.461538C0.000197 509.243077 229.218658 738.461538 512.000197 738.461538a509.952 509.952 0 0 0 322.481231-114.294153l-49.644308-61.164308A431.202462 431.202462 0 0 1 512.000197 659.692308C272.738658 659.692308 78.769428 465.723077 78.769428 226.461538c0-49.821538 8.408615-98.461538 24.635077-144.423384z m779.165539 368.974769l67.328 40.900923A509.735385 509.735385 0 0 0 1024.000197 226.461538a511.212308 511.212308 0 0 0-29.144615-170.653538l-74.259693 26.230154A432.443077 432.443077 0 0 1 945.230966 226.461538c0 80.344615-21.858462 157.420308-62.660923 224.551385zM531.692505 108.307692a78.769231 78.769231 0 1 1 0 157.538462 78.769231 78.769231 0 0 1 0-157.538462z"  horiz-adv-x="1024" />

    
    <glyph glyph-name="fuzhufenxigongju-" unicode="&#58959;" d="M128 725.333333h85.333333v-512H128zM298.666667 597.333333h85.333333v-384H298.666667zM85.333333 128h853.333334v-85.333333H85.333333zM597.333333 384c-93.866667 0-170.666667 76.8-170.666666 170.666667s76.8 170.666667 170.666666 170.666666 170.666667-76.8 170.666667-170.666666-76.8-170.666667-170.666667-170.666667z m0 256c-46.933333 0-85.333333-38.4-85.333333-85.333333s38.4-85.333333 85.333333-85.333334 85.333333 38.4 85.333334 85.333334-38.4 85.333333-85.333334 85.333333zM469.333333 384v-170.666667h85.333334v132.266667c-29.866667 8.533333-59.733333 21.333333-85.333334 38.4zM670.592 419.114667l60.330667 60.373333 193.066666-193.109333-60.330666-60.330667z"  horiz-adv-x="1024" />

    
    <glyph glyph-name="ren-" unicode="&#58960;" d="M512 0c-17.066667 0-34.133333 0-51.2 4.266667-38.4 4.266667-72.533333 8.533333-110.933333 12.8-55.466667 8.533333-115.2 21.333333-170.666667 42.666666-34.133333 12.8-55.466667 46.933333-46.933333 81.066667 12.8 89.6 98.133333 238.933333 200.533333 285.866667l25.6 12.8 21.333333-17.066667c34.133333-34.133333 85.333333-51.2 136.533334-51.2 51.2 0 98.133333 17.066667 136.533333 46.933333l21.333333 17.066667 25.6-8.533333c106.666667-42.666667 187.733333-192 204.8-281.6 4.266667-34.133333-12.8-68.266667-46.933333-81.066667-64-25.6-145.066667-42.666667-243.2-55.466667h-21.333333c-34.133333-8.533333-55.466667-8.533333-81.066667-8.533333z m-298.666667 136.533333c46.933333-17.066667 102.4-25.6 149.333334-38.4 34.133333-4.266667 68.266667-8.533333 98.133333-12.8 42.666667-4.266667 76.8-4.266667 110.933333 0h21.333334c85.333333 8.533333 157.866667 25.6 213.333333 46.933334-17.066667 64-68.266667 157.866667-128 196.266666-46.933333-34.133333-106.666667-51.2-166.4-51.2-64 0-119.466667 17.066667-170.666667 51.2-59.733333-34.133333-110.933333-132.266667-128-192zM512 426.666667c-93.866667 0-170.666667 76.8-170.666667 170.666666s76.8 170.666667 170.666667 170.666667 170.666667-76.8 170.666667-170.666667-76.8-170.666667-170.666667-170.666666z m0 256c-46.933333 0-85.333333-38.4-85.333333-85.333334s38.4-85.333333 85.333333-85.333333 85.333333 38.4 85.333333 85.333333-38.4 85.333333-85.333333 85.333334z"  horiz-adv-x="1024" />

    
    <glyph glyph-name="settings" unicode="&#59880;" d="M827.733333 341.333333c0 12.8 4.266667 25.6 4.266667 42.666667s0 29.866667-4.266667 42.666667l89.6 72.533333c8.533333 8.533333 8.533333 17.066667 4.266667 25.6l-85.333333 149.333333c-4.266667 4.266667-12.8 8.533333-25.6 4.266667l-106.666667-42.666667c-21.333333 17.066667-46.933333 29.866667-72.533333 42.666667l-17.066667 110.933333c4.266667 12.8-8.533333 21.333333-17.066667 21.333334h-170.666666c-8.533333 0-21.333333-8.533333-21.333334-17.066667l-17.066666-115.2c-25.6-8.533333-46.933333-25.6-72.533334-42.666667L213.333333 678.4c-12.8 4.266667-21.333333 0-29.866666-8.533333l-85.333334-149.333334c-4.266667-4.266667 0-17.066667 8.533334-25.6L196.266667 426.666667c0-12.8-4.266667-25.6-4.266667-42.666667s0-29.866667 4.266667-42.666667l-89.6-72.533333c-8.533333-8.533333-8.533333-17.066667-4.266667-25.6l85.333333-149.333333c4.266667-4.266667 12.8-8.533333 25.6-4.266667l106.666667 42.666667c21.333333-17.066667 46.933333-29.866667 72.533333-42.666667l17.066667-110.933333c0-8.533333 8.533333-17.066667 21.333333-17.066667h170.666667c8.533333 0 21.333333 8.533333 21.333333 17.066667l17.066667 110.933333c25.6 12.8 51.2 25.6 72.533333 42.666667l106.666667-42.666667c8.533333-4.266667 21.333333 0 25.6 8.533333l85.333333 149.333334c4.266667 8.533333 4.266667 21.333333-4.266666 25.6L827.733333 341.333333zM512 234.666667c-81.066667 0-149.333333 68.266667-149.333333 149.333333s68.266667 149.333333 149.333333 149.333333 149.333333-68.266667 149.333333-149.333333-68.266667-149.333333-149.333333-149.333333z"  horiz-adv-x="1024" />

    
    <glyph glyph-name="chengxiangyunhang" unicode="&#58887;" d="M426.545306 635.088886a51.029866 51.029866 0 0 0 72.156231 0l216.519724-216.519724a51.029866 51.029866 0 0 0 0-72.156231L498.701537 129.893208a51.029866 51.029866 0 1 0-72.156231 72.207261L606.935884 382.491047 426.545306 562.932655a51.029866 51.029866 0 0 0 0 72.156231z m491.162465-563.471785a74.605665 74.605665 0 0 1-31.842637 42.507878A457.227603 457.227603 0 1 1 768.80262 0.685586v-0.918537a75.269053 75.269053 0 0 1 18.115603-47.763955 511.98265 511.98265 0 1 0 130.789548 119.614007z"  horiz-adv-x="1027" />

    
    <glyph glyph-name="chengxiangyunhang-xz" unicode="&#58888;" d="M426.545306 635.088886a51.029866 51.029866 0 0 0 72.156231 0l216.519724-216.519724a51.029866 51.029866 0 0 0 0-72.156231L498.701537 129.893208a51.029866 51.029866 0 0 0-72.156231 0A199.016479 199.016479 0 0 0 411.593555 229.401448V535.580646a199.016479 199.016479 0 0 0 14.951751 99.50824z m491.162465-563.471785a74.605665 74.605665 0 0 1-31.842637 42.507878A457.227603 457.227603 0 1 1 768.80262 0.685586v-0.918537a75.269053 75.269053 0 0 1 18.115603-47.763955 511.98265 511.98265 0 1 0 130.789548 119.614007z"  horiz-adv-x="1027" />

    
    <glyph glyph-name="guanlishuju" unicode="&#58889;" d="M1013.185915 669.39329a302.678793 302.678793 0 0 0-380.103519-369.318997l-489.220496-428.074293-143.861449 143.91232L428.074743 505.132816A302.678793 302.678793 0 0 0 797.393741 885.236335l-221.69314-221.84575 215.843045-215.843045z"  horiz-adv-x="1025" />

    
    <glyph glyph-name="guihuashuju" unicode="&#58894;" d="M128 896h298.6496l128-1024H0z m810.6496-469.3504h-341.2992L554.6496 896h298.6496zM1024-128h-341.3504l-42.6496 469.3504h298.6496z"  horiz-adv-x="1024" />

    
    <glyph glyph-name="quanbu" unicode="&#58896;" d="M512.460846 896L1024.921508 639.769669 512.460846 383.539338 0.000184 639.769669zM0.6144 486.215735l511.846446-255.923223v-102.369289L0.6144 383.846446V486.215735z m511.846446-255.923223l511.846446 255.923223v-102.369289l-511.846446-255.923223v102.369289zM0.6144 230.292512l511.846446-255.923223v-102.369289L0.6144 127.923223v102.369289z m511.846446-255.923223l511.846446 255.923223v-102.369289l-511.846446-255.923223v102.369289z"  horiz-adv-x="1025" />

    
    <glyph glyph-name="shuangpingjia" unicode="&#58898;" d="M921.6 76.8h-100.8128L870.4-128l-254.4128 204.8H358.4a102.4 102.4 0 0 0-102.4 102.4v51.2H102.4a102.4 102.4 0 0 0-102.4 102.4V793.6a102.4 102.4 0 0 0 102.4 102.4h563.2a102.4 102.4 0 0 0 102.4-102.4v-102.4h153.6a102.4 102.4 0 0 0 102.4-102.4v-409.6a102.4 102.4 0 0 0-102.4-102.4z m-307.2 256a51.2 51.2 0 1 1-51.2 51.2 51.2 51.2 0 0 1 51.2-51.2z m-204.8 0a51.2 51.2 0 1 1-51.2 51.2 51.2 51.2 0 0 1 51.2-51.2z m307.2 409.6a102.4 102.4 0 0 1-102.4 102.4H153.6a102.4 102.4 0 0 1-102.4-102.4v-358.4a102.4 102.4 0 0 1 102.4-102.4h102.4V588.8a102.4 102.4 0 0 0 102.4 102.4h358.4V742.4z m102.4-307.2a51.2 51.2 0 1 1 51.2-51.2 51.2 51.2 0 0 1-51.2 51.2z"  horiz-adv-x="1024" />

    
    <glyph glyph-name="xianzhuangshuju" unicode="&#58900;" d="M0 332.8h204.8v-460.8H0v460.8zM409.6 896h204.8v-1024H409.6V896z m409.6-204.8h204.8v-819.2h-204.8V691.2z"  horiz-adv-x="1024" />

    
    <glyph glyph-name="ziranziyuanfenxipingjia1" unicode="&#58902;" d="M921.6-128H102.4a102.4 102.4 0 0 0-102.4 102.4V588.8a102.4 102.4 0 0 0 102.4 102.4h158.72a256 256 0 0 1 501.76 0H921.6a102.4 102.4 0 0 0 102.4-102.4v-614.4a102.4 102.4 0 0 0-102.4-102.4z m-174.08 489.5232a51.2 51.2 0 0 1-72.3968 0l-180.992-181.0432-144.7936 144.8448a51.2 51.2 0 1 1-72.3968-72.448l181.0432-180.992a51.2 51.2 0 0 1 72.3968 0l217.2416 217.1904a51.2 51.2 0 0 1-0.1024 72.448zM512 896a153.6 153.6 0 1 0-153.6-153.6 153.6 153.6 0 0 0 153.6 153.6z"  horiz-adv-x="1024" />

    
    <glyph glyph-name="liulan1" unicode="&#58910;" d="M1470.57716111 384.07017297a97.55195252 97.55195252 0 0 0-15.3383574-50.38650383 799.5885683 799.5885683 0 0 0-290.04833715-269.95508928 779.11186157 779.11186157 0 0 0-769.44869605 0A804.72691846 804.72691846 0 0 0 105.61674109 333.3002103a90.41961677 90.41961677 0 0 0 0 101.00308282 803.4998497 803.4998497 0 0 0 290.04833716 269.41824674 777.57802542 777.57802542 0 0 0 769.44869604 0 805.26376099 805.26376099 0 0 0 290.04833799-269.49493817A98.16548731 98.16548731 0 0 0 1470.57716111 384.07017297z m-98.62563758 0a743.45018033 743.45018033 0 0 1-293.42277604 258.52801328A314.43632528 314.43632528 0 0 0 1024.23096225 246.02495726999996a357.07695941 357.07695941 0 0 0-487.7597634 0 314.43632528 314.43632528 0 0 0-54.22109298 396.57322898A743.14341375 743.14341375 0 0 1 188.75063757 384.07017297a777.80810138 777.80810138 0 0 1 256.9174857-239.12499079 674.04411365 674.04411365 0 0 1 669.36591457 0 777.80810138 777.80810138 0 0 1 256.91748569 239.12499079zM806.57967182 640.37412387a34.1278451 34.1278451 0 0 1-1e-8 49.84966214A36.50529035 36.50529035 0 0 1 780.35108096 700.42379324a231.53250394 231.53250394 0 0 1-165.27080098-65.57147753 209.13850222 209.13850222 0 0 1-69.02260786-156.98808793 32.90077634 32.90077634 0 0 1 10.73684976-24.8481384 38.34589307 38.34589307 0 0 1 52.38049109 0 33.13085147 33.13085147 0 0 1 10.73684977 24.8481384 143.18356585 143.18356585 0 0 0 46.93537354 107.36850174 158.59861468 158.59861468 0 0 0 113.27376872 44.71131199 35.81506412 35.81506412 0 0 1 26.45866682 10.43008236z"  horiz-adv-x="1675" />

    
    <glyph glyph-name="shanchubiaoqian" unicode="&#58912;" d="M16.661576 880.996404a55.811168 55.811168 0 0 0 77.788092 0l933.559332-916.080009a53.35793 53.35793 0 0 0 0-76.357038 55.811168 55.811168 0 0 0-77.788093 0L16.661576 804.639367a53.35793 53.35793 0 0 0 0 76.357037z m987.939443-22.999107a51.109128 51.109128 0 0 0 0-72.574962L117.24434-85.272769a52.949057 52.949057 0 0 0-73.903799 0 51.109128 51.109128 0 0 0 0 72.574962L930.69722 857.997297a52.949057 52.949057 0 0 0 74.210454 0z"  horiz-adv-x="1047" />

    
    <glyph glyph-name="shoucang" unicode="&#58918;" d="M833.62934-128a88.650657 88.650657 0 0 0-37.158597 9.575716l-254.087718 124.84566-256.07513-124.84566a78.29202 78.29202 0 0 0-113.342755 82.567969L225.721916 233.34778500000004 24.390975 417.755604a83.591788 83.591788 0 0 0-21.500193 80.640781 77.5091 77.5091 0 0 0 64.50058 53.780595l279.502511 49.986444L472.040656 851.854743a79.797636 79.797636 0 0 0 70.342369 44.144655 77.569324 77.569324 0 0 0 70.342369-44.144655l125.086558-249.691319 279.562736-48.179705a74.919441 74.919441 0 0 0 62.513167-53.780595 77.268201 77.268201 0 0 0-19.573005-80.640781L859.044134 233.34778500000004l50.769364-268.842752a77.087527 77.087527 0 0 0-31.256584-76.846629 70.10147 70.10147 0 0 0-44.927574-15.357281z"  horiz-adv-x="1084" />

    
    <glyph glyph-name="weidu" unicode="&#58921;" d="M512 384m-512 0a512 512 0 1 1 1024 0 512 512 0 1 1-1024 0ZM512 384m-256 0a256 256 0 1 1 512 0 256 256 0 1 1-512 0Z"  horiz-adv-x="1024" />

    
    <glyph glyph-name="yonghu" unicode="&#58924;" d="M529.066517 895.99104a255.99776 255.99776 0 1 0-253.864445-255.99776 254.84577 254.84577 0 0 0 253.864445 255.99776z m-10.666573-1023.99104C7.25775-128-78.5015 119.720499 119.896764 312.870809 172.802968 364.070361 186.456182 378.406236 234.669093 426.661813c54.186193-98.132475 196.264949-127.99888 315.730571-127.99888 109.225711 0 224.424703 43.263621 281.597536 127.99888 34.133035-34.559698 50.772889-57.983493 87.039238-94.207175C1037.648734 212.733019 1118.288028-128 518.399944-128z"  horiz-adv-x="1024" />

    
    <glyph glyph-name="xialacaidan" unicode="&#58925;" d="M1228.863783 736.6625h-873.836325A82.868811 82.868811 0 0 0 273.105303 816.327245 82.868811 82.868811 0 0 0 355.027458 895.99199h873.836325A82.868811 82.868811 0 0 0 1310.785939 816.327245a82.868811 82.868811 0 0 0-81.922156-79.664745z m0-430.073111h-873.836325A82.868811 82.868811 0 0 0 273.105303 386.254134a82.868811 82.868811 0 0 0 81.922155 79.664745h873.836325A82.868811 82.868811 0 0 0 1310.785939 386.254134a82.868811 82.868811 0 0 0-81.922156-79.664745z m0-430.073112h-873.836325a82.868811 82.868811 0 0 0-81.922155 79.664745 82.868811 82.868811 0 0 0 81.922155 79.664745h873.836325A82.868811 82.868811 0 0 0 1310.785939-43.818978 82.868811 82.868811 0 0 0 1228.863783-123.483723zM5.492928 816.327245A81.922155 81.922155 0 1 1 87.415084 895.99199 80.82986 80.82986 0 0 1 5.492928 816.327245zM0.031451 386.254134a81.922155 81.922155 0 1 1 81.922156 79.664745A80.82986 80.82986 0 0 1 0.031451 386.254134z m0-430.073112a81.922155 81.922155 0 1 1 81.922156 79.664745A80.82986 80.82986 0 0 1 0.031451-43.818978z"  horiz-adv-x="1316" />

    
    <glyph glyph-name="xuanzhong" unicode="&#58926;" d="M877.714286-128H146.285714a146.285714 146.285714 0 0 0-146.285714 146.285714V749.714286a146.285714 146.285714 0 0 0 146.285714 146.285714h731.428572a146.285714 146.285714 0 0 0 146.285714-146.285714v-731.428572a146.285714 146.285714 0 0 0-146.285714-146.285714z m21.942857 751.030857a73.142857 73.142857 0 0 1-103.424 0l-362.057143-362.057143-206.848 206.848a73.142857 73.142857 0 1 1-103.424-103.424l258.56-258.56a73.142857 73.142857 0 0 1 103.424 0L899.657143 519.606857a73.142857 73.142857 0 0 1 0 103.424z"  horiz-adv-x="1024" />

    
    <glyph glyph-name="search" unicode="&#58927;" d="M983.173603-21.842519a61.719466 61.719466 0 1 0-87.271325-87.271324l-218.24003 218.24003a60.978832 60.978832 0 0 0-17.281451 39.562178 413.088384 413.088384 0 1 0 69.681277 64.126525 60.11476 60.11476 0 0 0 34.871498-16.355659zM429.241398 753.41569A277.737596 277.737596 0 1 1 706.978994 475.678094 277.737596 277.737596 0 0 1 429.241398 753.41569z"  horiz-adv-x="1024" />

    
    <glyph glyph-name="guotukongjianbaohu" unicode="&#58922;" d="M563.2 384v-358.4a153.6 153.6 0 1 0-307.2 0 141.4144 141.4144 0 0 0 9.9328 51.2H358.4v-51.2a51.2 51.2 0 0 1 102.4 0v358.4H0c14.848 212.736 233.0624 384 460.8 406.8352V844.8a51.2 51.2 0 0 0 102.4 0v-53.9648c227.7888-22.8864 446.3104-194.0992 461.1584-406.8352H563.2z"  horiz-adv-x="1024" />

    
    <glyph glyph-name="guotukongjiankaifaliyong" unicode="&#58928;" d="M1318.856627 340.438115l-270.149692-267.509579a64.154777 64.154777 0 0 0-90.027897 0 62.636711 62.636711 0 0 0 0 89.16986l225.135744 222.891647-225.135744 222.891647a62.636711 62.636711 0 0 0 0 89.169859 64.154777 64.154777 0 0 0 90.027897 0l270.149692-267.509578a62.504705 62.504705 0 0 0 0-89.103856zM620.150386-79.340054a66.002857 66.002857 0 0 0-127.517519 34.123477L731.761217 847.340054a66.002857 66.002857 0 0 0 127.517519-34.123477zM392.638539 57.285859a66.002857 66.002857 0 0 0-93.328039 0L19.260379 337.33598a66.002857 66.002857 0 0 0 0 93.32804L299.3105 710.714141a66.002857 66.002857 0 0 0 93.328039-93.32804L159.318441 384l233.320098-233.386101a66.002857 66.002857 0 0 0 0-93.32804z"  horiz-adv-x="1338" />

    
    <glyph glyph-name="ziranziyuanxianzhuang" unicode="&#58929;" d="M312.576313-128s222.450142 614.368742 343.833943 912.149776c64.442816 157.851038 83.353683 140.659341 129.302402-6.616198C879.589744 478.450142 1041.921042-128 1041.921042-128H312.576313z m-312.576313 0l357.222629 885.632886 95.28368-314.920635-235.42206-570.712251H0z"  horiz-adv-x="1041" />

    
    <glyph glyph-name="tianjiazhibiao" unicode="&#58935;" d="M950.857143 310.857143H585.142857v-365.714286a73.142857 73.142857 0 0 0-146.285714 0V310.857143H73.142857a73.142857 73.142857 0 0 0 0 146.285714h365.714286V822.857143a73.142857 73.142857 0 0 0 146.285714 0v-365.714286h365.714286a73.142857 73.142857 0 0 0 0-146.285714z"  horiz-adv-x="1024" />

    
    <glyph glyph-name="shanchuwenzi" unicode="&#58939;" d="M874.24 21.952a512 512 0 1 0 0 724.096 512.512 512.512 0 0 0 0-724.096z m-181.12 633.6L512 474.496 330.88 655.552a64 64 0 0 1-90.24-90.56L421.76 384l-181.12-180.992a64 64 0 0 1 90.24-90.56L512 293.504l181.12-181.056a64 64 0 0 1 90.24 90.56L602.24 384l181.12 180.992a64 64 0 0 1-90.24 90.56z"  horiz-adv-x="1024" />

    
    <glyph glyph-name="chengxiangyunhang1" unicode="&#58947;" d="M512 896A512 512 0 1 0 0 384 512 512 0 0 0 512 896z m202.24-475.8016L496.9984 637.44a51.2 51.2 0 0 1-72.3968-72.3968L605.5936 384l-180.992-180.992a51.2 51.2 0 1 1 72.3968-72.448l217.2416 217.2416a51.2 51.2 0 0 1 0 72.3968z"  horiz-adv-x="1024" />

    
    <glyph glyph-name="queren" unicode="&#58948;" d="M512-128a512 512 0 1 0 512 512 512 512 0 0 0-512-512z m281.984 685.568l-344.576-344.704-217.6 218.624a60.48 60.48 0 1 1-85.376-85.632l242.56-243.968a68.032 68.032 0 0 1 106.048-20.864 60.544 60.544 0 0 1 13.376 20.544l370.688 370.816a60.288 60.288 0 0 1-85.12 85.184z"  horiz-adv-x="1024" />

    
    <glyph glyph-name="suoxiao" unicode="&#58962;" d="M1007.616-111.36a55.1936 55.1936 0 0 0-77.824 0l-247.808 248.1152-93.696-144.5888a106.1376 106.1376 0 0 0-22.528-15.0528v353.28h404.48a107.52 107.52 0 0 0-15.36-22.6304l-195.584-93.3888 248.32-248.1152a55.3984 55.3984 0 0 0 0-77.6192zM759.808 555.008l195.072-92.7744a109.2608 109.2608 0 0 0 15.36-22.6816h-404.48v404.48a108.1344 108.1344 0 0 0 22.528-15.0528l93.184-195.2256L909.824 862.2592a55.4496 55.4496 0 0 0 78.336-78.5408z m-418.816-418.8672L114.176-90.624A55.4496 55.4496 0 0 0 35.84-12.0832l226.816 226.7648-195.584 92.8256a105.216 105.216 0 0 0-14.848 22.6304h403.968v-353.28a106.1376 106.1376 0 0 0-22.528 15.0528zM67.072 462.2336l196.096 93.3888L14.848 803.7376A54.6816 54.6816 0 0 0 92.16 881.1008l248.32-248.1152 93.184 195.7888a108.1344 108.1344 0 0 0 22.528 15.0528v-404.48H52.224a106.8032 106.8032 0 0 0 14.848 22.8864z"  horiz-adv-x="1024" />

    
    <glyph glyph-name="zhongdianyujingzhibiao" unicode="&#58963;" d="M874.019543 21.975299a511.985152 511.985152 0 1 0 0 724.049402 511.985152 511.985152 0 0 0 0-724.049402zM222.364841 673.630001l144.789401-434.419402 434.419402-144.8406-144.789401 434.419402z m253.43265-325.827351a51.198515 51.198515 0 1 0 72.394701 0 51.198515 51.198515 0 0 0-72.394701 0z"  horiz-adv-x="1025" />

    
    <glyph glyph-name="ziyuanhuanjingxianzhuang" unicode="&#58965;" d="M789.9648 384L1024 179.2h-358.4v-256a51.2 51.2 0 0 0-102.4 0v256H307.2v-204.8H256v204.8H204.8l234.0352 204.8H256l238.9504 204.8H307.2l307.2 307.2 307.2-307.2h-187.7504L972.8 384h-182.8352zM102.4 179.2H0l153.6 204.8h102.4z m-51.2 204.8l153.6 204.8h102.4l-153.6-204.8H51.2z m256 409.6h51.2L204.8 588.8H102.4z"  horiz-adv-x="1024" />

    
    <glyph glyph-name="xiazuan" unicode="&#58966;" d="M0.09856 339.3672a38.392705 38.392705 0 0 1 17.916596-31.993921l7.678541-3.327368 7.678541-3.199392 935.502255-423.855467 3.83927-1.79166a34.809386 34.809386 0 0 1 39.672462 7.294614l6.398785 6.782711A45.815295 45.815295 0 0 1 1023.904037-91.654906a24.827283 24.827283 0 0 1-1.279757 9.726152l-5.119027 10.238055L593.905737 861.124066 587.506952 874.817465A34.041532 34.041532 0 0 1 555.513031 895.805477a16.89279 16.89279 0 0 1-5.119027 0l-7.678541-1.79166a39.928414 39.928414 0 0 1-23.035623-25.595137V857.412772l-49.910517-432.68579-424.879273-48.374809-7.678541-0.89583-6.398785-0.767854-3.83927-0.767854a3.967246 3.967246 0 0 1-2.559514-1.023805 13.693398 13.693398 0 0 1-5.119027-2.303563 37.240924 37.240924 0 0 1-17.916596-23.931453V345.510033a2.047611 2.047611 0 0 1-1.279757-2.175587v-4.223197z"  horiz-adv-x="1024" />

    
    <glyph glyph-name="queren1" unicode="&#58967;" d="M512-128a512 512 0 1 0 512 512 512 512 0 0 0-512-512z m281.984 685.568l-344.576-344.704-217.6 218.624a60.48 60.48 0 1 1-85.376-85.632l242.56-243.968a68.032 68.032 0 0 1 106.048-20.864 60.544 60.544 0 0 1 13.376 20.544l370.688 370.816a60.288 60.288 0 0 1-85.12 85.184z"  horiz-adv-x="1024" />

    
    <glyph glyph-name="search1" unicode="&#58971;" d="M836.412952 59.587048A463.238095 463.238095 0 1 0 181.296762 714.703238a463.238095 463.238095 0 0 0 655.11619-655.11619z m-34.523428 34.523428a414.47619 414.47619 0 1 1-586.118095 586.118095 414.47619 414.47619 0 0 1 586.118095-586.118095z m34.523428-34.523428a24.380952 24.380952 0 0 0 34.474667 0l137.898667-137.898667a24.380952 24.380952 0 1 0-34.474667-34.474667l-137.898667 137.898667a24.380952 24.380952 0 0 0 0 34.474667z"  horiz-adv-x="1024" />

    
    <glyph glyph-name="zhankai" unicode="&#58970;" d="M834.56 20.138667a85.333333 85.333333 0 0 1 120.490667 0l603.477333 603.477333A85.333333 85.333333 0 0 1 1437.866667 744.106667L894.805333 201.216 351.573333 744.106667a85.333333 85.333333 0 1 1-120.661333-120.661334l603.306667-603.477333z"  horiz-adv-x="1706" />

    
    <glyph glyph-name="tuichu1" unicode="&#58969;" d="M599.719012 10.191575v-0.213324l-419.353194 358.555727a22.399067 22.399067 0 0 0 0 33.747927l419.139869 355.569185a12.671472 12.671472 0 0 0 9.428941 4.906462c8.618308 0 15.487355-10.239573 15.487354-23.12437V560.227324a81.489938 81.489938 0 0 1 53.245782-36.990459h163.491854c29.225449 0 52.776468-21.460439 52.776468-47.870005v-182.392401c0-12.671472-5.546436-24.830965-15.44469-33.790592-9.898254-8.959627-23.337694-14.036748-37.331778-13.994083h-170.318236c-11.007541-4.607808-32.937294-15.572684-46.4194-33.833257v-189.730761h-0.810632c-2.00525-9.42894-7.67968-16.169993-14.676722-16.169993a12.244823 12.244823 0 0 0-9.215616 4.735802z m348.785467 513.002625h22.612391c29.012124 0 52.733803-21.503104 52.733803-47.870005v-182.47773c0-26.452231-23.721678-47.870005-52.776468-47.870006h-22.612391V523.10887zM248.074997 895.573351a27.988167 27.988167 0 0 0 27.177534-28.329486 27.774843 27.774843 0 0 0-27.177534-28.329486v-0.981293H118.24574c-36.39315 0-65.917253-26.665556-65.917254-59.60285v-789.300446c0-32.979959 29.524103-59.730845 65.917254-59.730844h129.829257v-0.127995a27.774843 27.774843 0 0 0 27.177534-28.329486 28.030832 28.030832 0 0 0-27.177534-28.372151H133.135786c-72.95696 0-132.005166 53.288446-132.005166 119.03504V776.538311C1.087955 842.24224 60.050831 895.573351 133.093121 895.573351h114.981876z"  horiz-adv-x="1024" />

    
    <glyph glyph-name="qushifenxi" unicode="&#58972;" d="M512.256 896c282.7776 0 512-229.2224 512-512s-229.2224-512-512-512-512 229.2224-512 512 229.2224 512 512 512z m131.0208-624.64l194.304 203.52a47.8208 47.8208 0 0 1 11.9296 44.8 46.08 46.08 0 0 1-31.9488 32.8704 42.5984 42.5984 0 0 1-42.5984-11.9808l-164.096-170.6496-143.5648 149.3504a42.5984 42.5984 0 0 1-63.488 0l-220.3136-226.56a47.8208 47.8208 0 0 1 0-66.1504 42.5984 42.5984 0 0 1 63.488 0L435.712 420.7104l144.0256-149.3504a42.5984 42.5984 0 0 1 63.488 0z"  horiz-adv-x="1024" />

    
    <glyph glyph-name="xianzhuangfenxi" unicode="&#58973;" d="M511.488511 894.977023c282.495105 0 511.488511-228.993407 511.488512-511.488512s-228.993407-511.488511-511.488512-511.488511-511.488511 228.993407-511.488511 511.488511 228.993407 511.488511 511.488511 511.488512zM335.22957 100.533067v283.62038a56.826374 56.826374 0 0 1-113.755045 0v-283.62038a56.826374 56.826374 0 0 1 113.755045 0z m232.88072 0V667.927273a56.826374 56.826374 0 0 1-113.703896 0v-567.394206a56.826374 56.826374 0 0 1 113.703896 0z m232.931868 0V497.755045a56.826374 56.826374 0 0 1-113.703896 0v-397.221978a56.826374 56.826374 0 0 1 113.703896 0z"  horiz-adv-x="1024" />

    
    <glyph glyph-name="zhuyaowenti" unicode="&#58974;" d="M512 896c282.7776 0 512-229.2224 512-512s-229.2224-512-512-512S0 101.2224 0 384 229.2224 896 512 896z m9.0112-222.8224c-60.6208 0-108.1344-17.4592-142.5408-52.4288-34.4064-34.4064-51.6096-81.408-51.6096-140.9024h86.016c0 36.0448 7.3728 63.8976 22.1184 83.5584 16.384 23.5008 43.1616 35.2256 80.2816 35.2256 30.0544 0 53.248-8.192 69.632-24.576 15.872-16.896 23.7568-39.3216 23.7568-67.1744 0-20.224-7.68-40.1408-22.9376-59.8016l-13.9264-15.5648c-51.3536-45.8752-82.176-79.7184-92.5696-101.5808-10.9056-20.224-16.384-46.1312-16.384-77.824v-13.9264h87.6544v13.9264c0 20.224 4.352 38.2464 13.1072 54.0672 7.68 15.872 19.0976 30.0544 34.4064 42.5984 38.7584 33.8432 61.696 55.1424 68.8128 63.8976 20.736 26.7776 31.1296 60.0576 31.1296 99.9424 0 49.664-16.384 88.7296-49.152 117.1456-32.256 28.928-74.8032 43.4176-127.7952 43.4176z m-14.7456-479.232c-17.4592 0-31.6928-5.4784-42.5984-16.384-11.4688-10.3936-17.2032-24.32-17.2032-41.7792 0-16.384 5.7344-30.3104 17.2032-41.7792 11.4688-11.4688 25.6512-17.2032 42.5984-17.2032 16.384 0 30.5664 5.4784 42.5984 16.384 12.032 12.032 18.0224 26.2144 18.0224 42.5984 0 17.4592-5.7344 31.3856-17.2032 41.7792-10.9056 10.9056-25.3952 16.384-43.4176 16.384z"  horiz-adv-x="1024" />

    
    <glyph glyph-name="guotukongjiankaifaliyong1" unicode="&#58975;" d="M1023.959554 358.421503a49.764409 49.764409 0 0 0-12.236311-33.073877l-203.460661-234.128235a51.197952 51.197952 0 0 0-70.857966-6.194952l-1.791928 1.433543a49.969201 49.969201 0 0 0-6.246151 71.625935l173.970642 200.183992-173.970642 200.183993a49.969201 49.969201 0 0 0 6.246151 71.574737l1.791928 1.433543a51.197952 51.197952 0 0 0 70.857966-6.194953l203.460661-234.128234c8.24287-9.471621 12.287508-21.144754 12.287509-32.76669z m-1023.959042 0c0 11.570737 3.99344 23.24387 12.236311 32.715492l203.460661 234.128234a51.197952 51.197952 0 0 0 70.857966 6.194953l1.791928-1.433543a49.969201 49.969201 0 0 0 6.24615-71.625935l-173.970641-200.183993 173.970641-200.183992a49.969201 49.969201 0 0 0-6.24615-71.574737l-1.791928-1.433543a51.197952 51.197952 0 0 0-70.857966 6.143754L12.236823 325.398824a49.969201 49.969201 0 0 0-12.287509 33.022679zM695.883077 892.825727l0.255989-0.102396a51.197952 51.197952 0 0 0 30.565178-65.482181l-333.145074-921.563137a51.044358 51.044358 0 0 0-65.584577-30.565178l-0.25599 0.102396a51.197952 51.197952 0 0 0-30.565177 65.482181l333.145074 921.563138a51.044358 51.044358 0 0 0 65.584577 30.565177z"  horiz-adv-x="1024" />

    
    <glyph glyph-name="zonglan1" unicode="&#58976;" d="M849.803558 767.629958a510.512668 510.512668 0 0 1-624.812658 40.521751L511.661824 435.525555l338.141734 332.104403zM497.335952 350.593602L174.59453 768.60207A511.638272 511.638272 0 1 1 1023.300095 384.361728c0 8.800178-0.869785 17.395701-1.330259 26.093552L497.335952 350.593602z m116.141888 85.2901l401.533715 38.065888a509.182408 509.182408 0 0 1-119.979174 248.502708l-281.503377-286.568596z"  horiz-adv-x="1024" />

    
    <glyph glyph-name="shishidaoxiang" unicode="&#58977;" d="M238.848 889.6512c-35.584 0-69.2736-7.8336-99.6864-21.8112l142.6944-141.824c23.808-23.7056 28.3136-57.3952 10.0864-75.52l-49.408-49.152c-18.176-18.1248-52.224-13.6192-75.9296 10.0352L23.5008 753.408a240.384 240.384 0 0 1-23.3984-103.5776c0-132.4032 106.9056-239.872 238.592-239.872 131.7376 0 238.7456 107.4688 238.7456 239.872 0 132.4032-106.8032 239.8208-238.592 239.8208zM951.808 96L410.3168 640.768l-160.256-161.28 544.1536-547.4304c20.7872-22.0672 50.176-35.9424 82.7904-35.9424a113.8176 113.8176 0 0 1 113.5616 114.0736c0 34.2016-15.0016 64.9728-38.8608 85.8112z m-74.4448-142.848a56.832 56.832 0 0 0-56.6272 56.9344c0 31.5392 25.344 56.9856 56.6272 56.9856 31.2832 0 56.6272-25.5488 56.6272-56.9856a56.832 56.832 0 0 0-56.6272-56.9856zM372.224 285.5936l-176.4864-177.664 48.0768-48.4352 176.64 177.664-48.2304 48.4352zM141.6704 92.672l-132.608-170.496 59.0848-50.176 169.1648 139.264 45.568 136.3968-141.2096-55.04zM990.72 861.9008a112.9472 112.9472 0 0 1-151.9616 7.6288l-0.4608 0.4608-288.8704-290.7648 32.0512-32.256 264.8064 266.4448a22.4768 22.4768 0 0 0 32.0512 0 22.8864 22.8864 0 0 0 0-32.3072l-264.704-266.3936 32.0512-32.256 264.8064 266.4448a22.4768 22.4768 0 0 0 32.0512 0 22.8864 22.8864 0 0 0 0-32.3072l-264.704-266.496 32.0512-32.3072 280.7296 282.4192 0.1024 0.1024 0.1536 0.1024 7.8848 7.9872-0.4608 0.4096a114.7392 114.7392 0 0 1-7.5776 153.088z"  horiz-adv-x="1024" />

    
    <glyph glyph-name="mubiaodaoxiang" unicode="&#58978;" d="M512.688333 529.013792a145.781331 145.781331 0 0 1-145.576654-145.832501 145.781331 145.781331 0 0 1 145.576654-145.88367 145.781331 145.781331 0 0 1 145.576654 145.832501 146.190686 146.190686 0 0 1-145.576654 145.88367z m0-225.40076a79.51709 79.51709 0 0 0 0 159.085349 79.51709 79.51709 0 0 0 0-159.085349z m478.535279 112.879472h-35.204477a442.767939 442.767939 0 0 1-128.793125 281.840496 441.795723 441.795723 0 0 1-281.635818 128.997802V862.995803A33.055367 33.055367 0 0 1 512.688333 896a33.055367 33.055367 0 0 1-32.953028-33.004197v-35.306816c-48.406156-3.63302-95.174895-14.839097-139.999201-33.669399A446.400959 446.400959 0 0 1 102.924591 556.747551a439.03258 439.03258 0 0 1-33.56706-140.255047H33.129668a33.055367 33.055367 0 0 1-32.953028-33.004197c0-18.165101 14.839097-33.004197 32.953028-33.004197h36.227863a442.767939 442.767939 0 0 1 128.793125-281.840496 441.795723 441.795723 0 0 1 281.277633-129.048971v-33.976414c0-18.165101 14.839097-33.004197 32.901859-33.004197 18.113932 0 32.953028 14.839097 32.953028 33.004197v33.311213a441.795723 441.795723 0 0 1 281.277633 129.048971 442.767939 442.767939 0 0 1 95.174896 141.585449 439.03258 439.03258 0 0 1 33.618229 140.255047h35.204477c18.113932 0 32.953028 14.839097 32.953028 33.004197a31.878473 31.878473 0 0 1-32.236658 33.669398z m-445.63342-410.889466v77.265641a33.055367 33.055367 0 0 1-32.901859 32.953028 33.055367 33.055367 0 0 1-32.953028-33.004198V5.654207a379.318009 379.318009 0 0 0-344.164701 344.522887h80.693983a33.055367 33.055367 0 0 1 0 66.008395H135.570604C151.381917 598.706376 296.958571 744.845892 479.428289 760.708375v-74.604837c0-18.165101 14.839097-33.004197 32.901859-33.004198 18.113932 0 32.953028 14.839097 32.953028 33.004198V761.015391c182.776734-15.862483 328.353388-162.053168 344.164701-344.522887h-81.000999a33.055367 33.055367 0 0 1-32.953028-33.004197c0-18.165101 14.839097-33.004197 32.953028-33.004197h81.000999c-15.811313-183.186088-161.387967-329.018589-343.857685-344.881072z"  horiz-adv-x="1024" />

    
    <glyph glyph-name="wentidaoxiang" unicode="&#58979;" d="M1023.122994 20.471611v-18.942929a51.197107 51.197107 0 0 0-88.570996-35.018822l-37.52748 40.036138-564.857685-1.638307c-130.757412 5.631682-93.025144 208.884198-98.144855 255.985537h245.643721l-55.292876-170.127988h112.582439l17.663002 55.190482h108.896247l15.359133-55.190482h115.39828l-51.657882 169.718411c54.934496 0.767957 156.81674-11.365758 158.199062 73.416652V559.884335l-0.511971 48.739646 26.571299 0.511971c92.615567 0 97.735278 5.785273 96.762533-115.961448v-381.41845c0.921548-55.292876-0.511971-91.284442-0.511971-91.284443z m-364.267419 171.51031h-100.499922l15.359132 45.360637h69.320883l15.819907-45.411834z m56.316818 148.829991H150.673087L84.884804 283.112772A51.197107 51.197107 0 0 0 0 321.715391V772.147542C0.921548 884.21801 11.160969 897.47806 170.281579 895.481373H694.232776c120.517991 3.737389 130.757412-12.287306 135.877123-125.688898v-332.781198c0-95.021831-115.859054-96.250562-114.937506-96.250562zM598.750171 732.623375a173.4558 173.4558 0 0 1-66.965817 75.259748 185.8455 185.8455 0 0 1-98.656826 26.929678 189.122115 189.122115 0 0 1-98.196052-25.905736c-29.182351-17.560608-52.733021-43.875921-67.42659-75.566931a252.094557 252.094557 0 0 1-23.704261-110.073781 245.234144 245.234144 0 0 1 23.704261-109.305824c14.949555-31.486221 38.397831-57.647943 67.477787-75.259748a181.084169 181.084169 0 0 1 97.274504-26.776087 144.375843 144.375843 0 0 1 79.969882 9.727451 206.836314 206.836314 0 0 1 67.017014-43.159162l13.516036 20.17166 18.635747 39.933744a160.042158 160.042158 0 0 0-44.695075 28.567986c18.277367 18.123776 32.151783 40.548109 40.445715 65.378706a264.43306 264.43306 0 0 1 14.488782 90.721274 251.428994 251.428994 0 0 1-22.885107 109.357022z m-122.873058-235.301906a103.930128 103.930128 0 0 0-41.828037-8.601114 100.141542 100.141542 0 0 0-77.717209 34.097274 142.020776 142.020776 0 0 0-30.206293 97.120912 139.102541 139.102541 0 0 0 30.718264 98.144855 99.680768 99.680768 0 0 0 93.844298 33.482909c34.711639-6.55323 63.740399-31.281433 76.898055-65.532298v2.918235c9.164282-21.605179 13.618431-45.104652 13.055263-68.808912a135.416349 135.416349 0 0 0-36.759523-103.776537l-27.953621-19.045324z"  horiz-adv-x="1024" />

    
    <glyph glyph-name="jichuzhibiao" unicode="&#58980;" d="M512 896c282.7776 0 512-229.2224 512-512s-229.2224-512-512-512S0 101.2224 0 384 229.2224 896 512 896z m0-959.6928a448 448 0 0 1 389.4272 227.1232l-56.4736 32.6144a32.2048 32.2048 0 0 0 32.1536 55.7056l52.1216-30.0544a445.3888 445.3888 0 0 1 30.464 162.304c0 65.536-14.1312 127.744-39.5264 183.9104l-53.9136-31.1296a32.0512 32.0512 0 0 0-43.9296 11.776 32.1536 32.1536 0 0 0 11.776 43.9296l55.3472 31.9488a447.9488 447.9488 0 0 1-351.2832 206.4896V766.976a32.1536 32.1536 0 0 0-64.3584 0V829.952A448.1024 448.1024 0 0 1 135.2704 625.664l57.344-33.1264a32.1536 32.1536 0 0 0-32.1536-55.7056L104.448 569.1392A445.0304 445.0304 0 0 1 64.3072 384a445.44 445.44 0 0 1 30.8224-163.2256l53.6576 30.976a32.1024 32.1024 0 1 0 32.1536-55.7056l-57.9584-33.4336A448 448 0 0 1 512-63.6928z m231.5776 720.4864a28.8256 28.8256 0 0 0 41.472 0c11.4176-11.6736 11.4176-30.72 0-42.3936l-126.208-129.1264c18.8416-29.3376 28.8768-63.6928 28.928-98.816 0-100.1472-79.6672-181.6576-177.5104-181.6576-97.792 0-177.4592 81.5104-177.4592 181.7088 0 100.1472 79.616 181.6064 177.4592 181.6064 41.0624 0 78.4384-14.848 108.544-38.912l124.7744 127.5904z m-233.3184-391.9872c65.536 0 118.8864 54.5792 118.8864 121.6512 0 67.072-53.3504 121.6512-118.8864 121.6512S391.424 453.5296 391.424 386.4576c0-67.072 53.248-121.6512 118.784-121.6512z"  horiz-adv-x="1024" />

    
    <glyph glyph-name="guanbi" unicode="&#58981;" d="M236.867095 747.51719c-32.191638-22.911742-60.799316-48.89545-85.759035-77.951123a509.178272 509.178272 0 0 1-64.383276-94.078941A476.282642 476.282642 0 0 1 32.0054 353.921618c0-66.751249 12.671857-129.278546 38.079572-187.709888a490.874478 490.874478 0 0 1 102.974841-152.766281 489.466494 489.466494 0 0 1 152.318286-103.230839c58.239345-25.471713 120.638643-38.20757 187.133895-38.20757a459.898826 459.898826 0 0 1 186.109907 38.20757 496.058419 496.058419 0 0 1 152.83028 103.230839 478.970612 478.970612 0 0 1 103.038841 152.766281 471.674694 471.674694 0 0 1 37.503578 187.645889c0 38.015572-4.47995 75.327153-13.439849 111.870742a498.298394 498.298394 0 0 1-38.015572 104.318826 460.794816 460.794816 0 0 1-61.183312 92.542959 521.594132 521.594132 0 0 1-81.535082 77.439129 66.111256 66.111256 0 0 1-50.943427 12.927854 67.263243 67.263243 0 0 1-44.4795-26.879697 64.319276 64.319276 0 0 1-12.863855-50.559432c2.879968-18.68779 11.775868-33.727621 26.815698-45.183491a333.756245 333.756245 0 0 0 103.486836-121.598632 342.396148 342.396148 0 0 0 35.903596-154.878258c0-47.295468-8.959899-91.966965-26.815698-133.886494a345.596112 345.596112 0 0 0-182.845943-183.93393 329.78829 329.78829 0 0 0-133.566498-27.455692 329.78829 329.78829 0 0 0-133.502498 27.455692 351.612044 351.612044 0 0 0-109.438769 74.239164 352.89203 352.89203 0 0 0-73.983167 109.694766 332.220263 332.220263 0 0 0-27.327693 133.950493c0 55.871371 12.799856 108.798776 38.591566 158.590216a335.10023 335.10023 0 0 0 108.350781 123.198614c15.679824 10.751879 25.151717 25.471713 28.41568 44.095504 3.199964 18.62379-0.575994 35.839597-11.263873 51.647419a65.727261 65.727261 0 0 1-43.967505 27.391692c-18.62379 3.199964-35.839597-0.511994-51.519421-11.263873zM512.511994 350.721654c18.559791 0 34.559611 6.655925 47.743463 19.839777 13.247851 13.31185 19.839777 29.247671 19.839777 47.935461V827.132295c0 18.68779-6.591926 34.815608-19.839777 48.447455A64.127279 64.127279 0 0 1 512.511994 895.99552c-19.263783 0-35.5196-6.783924-48.767451-20.47977-13.247851-13.567847-19.839777-29.695666-19.839777-48.383455v-408.699402c0-18.68779 6.591926-34.559611 19.839777-47.871462 13.247851-13.247851 29.439669-19.903776 48.767451-19.903776z"  horiz-adv-x="1024" />

    
    <glyph glyph-name="yunhangjiankong" unicode="&#58985;" d="M512-128C229.2224-128 0 101.2224 0 384S229.2224 896 512 896s512-229.2224 512-512-229.2224-512-512-512z m0 665.6a256 256 0 1 1 0-512 256 256 0 0 1 0 512zM744.0384-128c63.744 24.7808 120.064 59.8016 165.632 102.4a409.2416 409.2416 0 0 0 80.3328-102.4h-245.9648z m-446.8736 0H51.2c20.4288 37.376 47.616 71.8336 80.2816 102.4 45.568-42.5984 101.9392-77.6192 165.6832-102.4zM460.8 230.4m-102.4 0a102.4 102.4 0 1 1 204.8 0 102.4 102.4 0 1 1-204.8 0Z"  horiz-adv-x="1024" />

    
    <glyph glyph-name="zhibiaozhiguanlicopy" unicode="&#58986;" d="M786.944-9.5744a39.424 39.424 0 0 0 39.424-39.3216v-39.3728H196.7616v39.3728s17.664 39.3216 39.3216 39.3216h550.8608zM905.0624 895.3856a118.0672 118.0672 0 0 0 118.0672-118.016v-550.8608a118.0672 118.0672 0 0 0-118.0672-118.016h-275.4048v-39.3728c0-19.0464-17.664-39.3216-39.3216-39.3216H432.896a39.424 39.424 0 0 0-39.3728 39.3216v39.3728h-275.456a118.0672 118.0672 0 0 0-118.016 118.016V777.3696A118.0672 118.0672 0 0 0 118.1184 895.3856h786.944zM118.0672 265.8816h786.944a39.424 39.424 0 0 1 39.3728 39.3216V777.3696a39.424 39.424 0 0 1-39.3728 39.3216H118.0672a39.424 39.424 0 0 1-39.3216-39.3216v-472.1664a39.424 39.424 0 0 1 39.3728-39.3216z m786.944-119.5008a40.8064 40.8064 0 1 1 0 81.5616 40.8064 40.8064 0 0 1 0-81.5616zM256 537.6h102.4v-204.8H256V537.6z m204.8 153.6h102.4v-358.4H460.8V691.2z m204.8-102.4h102.4v-256h-102.4V588.8z"  horiz-adv-x="1024" />

    
    </font>
</defs>
</svg>
